<svg width="108" height="108" viewBox="0 0 108 108" fill="none" xmlns="http://www.w3.org/2000/svg">
<path d="M19.7183 53.7796C19.7165 71.9187 33.9209 86.8813 52.0348 87.8206C53.0028 87.8528 53.7736 88.6452 53.7772 89.6132V103.972C53.7758 104.215 53.7251 104.456 53.6282 104.679C53.5313 104.903 53.3902 105.104 53.2133 105.272C53.0364 105.439 52.8275 105.569 52.5991 105.654C52.3707 105.739 52.1275 105.776 51.8842 105.764C50.8876 105.722 49.8927 105.646 48.9014 105.535C48.2113 105.448 47.5682 105.139 47.07 104.654C46.5717 104.168 46.2455 103.534 46.1408 102.846L45.0115 95.9391C39.7298 94.8482 34.7045 92.7602 30.2049 89.787L24.5045 93.8759C23.9421 94.2896 23.2607 94.5098 22.5625 94.5033C21.8644 94.4969 21.1871 94.2641 20.6325 93.84C19.3841 92.7991 18.1819 91.704 17.0294 90.5578C15.8744 89.4099 14.7795 88.2031 13.749 86.9422C13.3241 86.3873 13.0908 85.7093 13.0844 85.0104C13.0779 84.3115 13.2986 83.6294 13.7132 83.0667L17.8002 77.3699C14.8288 72.8658 12.7421 67.8371 11.6517 62.5525L4.75029 61.4213C4.05298 61.305 3.41281 60.9639 2.92736 60.45C2.44192 59.9361 2.13782 59.2775 2.06143 58.5747C1.70853 55.3577 1.70853 52.1118 2.06143 48.8948C2.24069 47.4769 3.33775 46.3494 4.75029 46.1325L11.6517 45.0031C12.7421 39.7185 14.8288 34.6898 17.8002 30.1857L13.7132 24.4853C13.3003 23.9233 13.0806 23.2426 13.0871 22.5452C13.0935 21.8478 13.3258 21.1713 13.749 20.617C14.7708 19.3496 15.8643 18.1432 17.0294 17.0067C18.1732 15.8509 19.3759 14.7548 20.6325 13.7227C21.1871 13.2986 21.8644 13.0659 22.5625 13.0594C23.2607 13.053 23.9421 13.2731 24.5045 13.6869L30.2049 17.7775C34.7048 14.8045 39.7299 12.716 45.0115 11.6236L46.1408 4.71863C46.2476 4.02976 46.574 3.3938 47.0714 2.90542C47.5688 2.41704 48.2107 2.10237 48.9014 2.00826C49.8953 1.90926 50.8918 1.83813 51.8896 1.79494C52.1325 1.78358 52.3752 1.82146 52.6031 1.9063C52.831 1.99115 53.0394 2.12121 53.2157 2.28867C53.392 2.45612 53.5327 2.65751 53.6292 2.88072C53.7257 3.10393 53.776 3.34434 53.7772 3.58751V17.9496C53.7718 18.9176 53.0028 19.7099 52.0348 19.7422C33.9226 20.6815 19.7183 35.6423 19.7183 53.7796Z" fill="#0061FF"/>
<path d="M52.0349 19.7404C53.0029 19.7081 53.7737 18.9158 53.7773 17.9478V3.58751C53.7761 3.34434 53.7257 3.10393 53.6292 2.88072C53.5327 2.65751 53.3921 2.45612 53.2158 2.28867C53.0394 2.12121 52.8311 1.99115 52.6032 1.9063C52.3753 1.82146 52.1326 1.78358 51.8897 1.79494C50.8823 1.83617 49.8856 1.90787 48.9015 2.00646C48.5382 2.05251 48.1862 2.16299 47.8618 2.33271C48.2024 2.66254 48.396 3.11427 48.3995 3.58751V17.9496C48.3942 18.9176 47.6251 19.7099 46.6572 19.7422C28.5414 20.6815 14.337 35.6423 14.337 53.7832C14.337 71.924 28.5414 86.8831 46.6572 87.8224C47.6251 87.8546 48.396 88.647 48.3995 89.6149V103.972C48.3973 104.206 48.3486 104.438 48.2563 104.653C48.164 104.868 48.0299 105.063 47.8618 105.226C48.1844 105.39 48.534 105.495 48.8925 105.537C49.8748 105.648 50.8643 105.716 51.8753 105.766C52.1195 105.779 52.3638 105.743 52.5934 105.658C52.823 105.574 53.033 105.444 53.2109 105.277C53.3888 105.109 53.5307 104.907 53.628 104.682C53.7254 104.458 53.7762 104.216 53.7773 103.972V89.606C53.7747 89.1399 53.5919 88.693 53.2671 88.3588C52.9422 88.0246 52.5007 87.8292 52.0349 87.8134C33.9191 86.8741 19.7148 71.9133 19.7148 53.7724C19.7148 35.6316 33.9191 20.6725 52.0349 19.7332V19.7404Z" fill="#0061FF"/>
<path d="M53.7772 78.9526C53.7794 79.1757 53.7361 79.397 53.65 79.6029C53.564 79.8088 53.4369 79.9951 53.2766 80.1503C53.1163 80.3056 52.9261 80.4266 52.7176 80.5061C52.509 80.5855 52.2865 80.6217 52.0635 80.6125C37.9022 79.7162 26.8743 67.9677 26.8743 53.7777C26.8743 39.5876 37.9022 27.8391 52.0635 26.9428C52.2865 26.9336 52.509 26.9698 52.7176 27.0492C52.9261 27.1287 53.1163 27.2497 53.2766 27.405C53.4369 27.5603 53.564 27.7465 53.65 27.9524C53.7361 28.1583 53.7794 28.3796 53.7772 28.6027V78.9526Z" fill="#0061FF"/>
<path d="M52.0635 26.9428C50.6932 27.0388 49.3322 27.2395 47.9926 27.5433C48.2477 27.8382 48.3916 28.2129 48.3995 28.6027V78.9526C48.3916 79.3424 48.2477 79.7171 47.9926 80.012C49.3316 80.3167 50.694 80.5157 52.0635 80.6125C52.2865 80.6217 52.509 80.5855 52.7175 80.5061C52.9261 80.4266 53.1163 80.3056 53.2766 80.1503C53.4369 79.9951 53.5639 79.8088 53.65 79.6029C53.736 79.397 53.7793 79.1757 53.7772 78.9526V28.6027C53.7793 28.3796 53.736 28.1583 53.65 27.9524C53.5639 27.7465 53.4369 27.5603 53.2766 27.405C53.1163 27.2497 52.9261 27.1287 52.7175 27.0492C52.509 26.9698 52.2865 26.9336 52.0635 26.9428Z" fill="#0061FF"/>
<path d="M69.9103 12.5492C71.8904 12.5492 73.4955 10.9441 73.4955 8.96405C73.4955 6.98403 71.8904 5.37891 69.9103 5.37891C67.9303 5.37891 66.3252 6.98403 66.3252 8.96405C66.3252 10.9441 67.9303 12.5492 69.9103 12.5492Z" fill="#0061FF"/>
<path d="M69.9103 102.178C71.8904 102.178 73.4955 100.573 73.4955 98.593C73.4955 96.6129 71.8904 95.0078 69.9103 95.0078C67.9303 95.0078 66.3252 96.6129 66.3252 98.593C66.3252 100.573 67.9303 102.178 69.9103 102.178Z" fill="#0061FF"/>
<path d="M87.8361 84.2523C89.8161 84.2523 91.4213 82.6472 91.4213 80.6672C91.4213 78.6872 89.8161 77.082 87.8361 77.082C85.8561 77.082 84.251 78.6872 84.251 80.6672C84.251 82.6472 85.8561 84.2523 87.8361 84.2523Z" fill="#0061FF"/>
<path d="M102.177 57.3617C104.157 57.3617 105.762 55.7566 105.762 53.7766C105.762 51.7965 104.157 50.1914 102.177 50.1914C100.197 50.1914 98.5916 51.7965 98.5916 53.7766C98.5916 55.7566 100.197 57.3617 102.177 57.3617Z" fill="#0061FF"/>
<path d="M87.8361 30.475C89.8161 30.475 91.4213 28.8699 91.4213 26.8898C91.4213 24.9098 89.8161 23.3047 87.8361 23.3047C85.8561 23.3047 84.251 24.9098 84.251 26.8898C84.251 28.8699 85.8561 30.475 87.8361 30.475Z" fill="#0061FF"/>
<path d="M4.45634 44.3687C3.38594 44.5423 2.40054 45.0579 1.64762 45.8383C0.8947 46.6186 0.414764 47.6219 0.279642 48.6978C-0.089583 52.045 -0.0931895 55.4224 0.268887 58.7703C0.391668 59.8625 0.867302 60.8848 1.62364 61.6822C2.37998 62.4797 3.37576 63.0086 4.45993 63.189L10.1639 64.1229C11.259 68.7872 13.1075 73.2417 15.6366 77.3109L12.2791 82.0003C11.6281 82.883 11.2835 83.9543 11.2977 85.051C11.312 86.1477 11.6843 87.2098 12.358 88.0753C13.4264 89.3839 14.5629 90.6333 15.7639 91.82C16.9724 93.021 18.2332 94.1681 19.5426 95.2581C21.3065 96.6151 23.7552 96.6438 25.5514 95.328L30.264 91.9472C34.3292 94.4759 38.7793 96.325 43.4395 97.4218L44.3752 103.135C44.5484 104.205 45.0638 105.191 45.8442 105.945C46.6246 106.698 47.6281 107.178 48.7042 107.313C49.726 107.428 50.7639 107.509 51.809 107.552H51.9614C52.8953 107.552 53.7934 107.193 54.471 106.548C55.1754 105.876 55.5716 104.943 55.5698 103.97V89.6043C55.5647 88.6802 55.2043 87.7933 54.5632 87.1276C53.9222 86.4618 53.0496 86.0682 52.1263 86.0282C34.9695 85.1319 21.5163 70.9598 21.5163 53.7798C21.5163 36.5997 34.9695 22.4258 52.1281 21.5296C53.0528 21.489 53.9264 21.094 54.5676 20.4264C55.2088 19.7588 55.5683 18.87 55.5716 17.9444V3.58588C55.573 3.10371 55.4761 2.6263 55.2869 2.18281C55.0976 1.73931 54.82 1.33902 54.471 1.00637C54.1224 0.664327 53.7066 0.398344 53.2499 0.225245C52.7933 0.0521459 52.3057 -0.0243023 51.8179 0.00073581C50.7747 0.041965 49.7404 0.117253 48.6791 0.224808C47.6038 0.363426 46.6026 0.847878 45.8266 1.60513C45.0506 2.36238 44.5419 3.35137 44.377 4.42302L43.443 10.1306C38.7829 11.2281 34.3327 13.0778 30.2676 15.6069L25.5549 12.2333C24.6729 11.5883 23.6045 11.2487 22.5119 11.2662C21.4194 11.2837 20.3624 11.6572 19.5014 12.3301C18.2017 13.3939 16.9578 14.5241 15.7747 15.7162C14.5557 16.9083 13.4085 18.1721 12.3365 19.4986C11.6707 20.3587 11.3023 21.4117 11.2868 22.4993C11.2713 23.5869 11.6095 24.65 12.2505 25.5288L15.6295 30.2468C13.1025 34.3157 11.2564 38.7696 10.1639 43.433L4.45634 44.3687ZM13.4067 45.369C14.4489 40.306 16.4481 35.4886 19.2971 31.1754C19.4965 30.8724 19.5993 30.5161 19.5919 30.1535C19.5845 29.7909 19.4674 29.439 19.2558 29.1444L15.167 23.4351C14.9827 23.192 14.8808 22.8965 14.876 22.5916C14.8711 22.2866 14.9637 21.9881 15.1401 21.7393C16.1227 20.5215 17.1768 19.3633 18.2968 18.2707C19.3847 17.1716 20.5275 16.1282 21.7206 15.1444C21.9704 14.954 22.2759 14.8508 22.59 14.8508C22.9042 14.8508 23.2096 14.954 23.4594 15.1444L29.1598 19.2351C29.4548 19.4461 29.8068 19.5626 30.1695 19.5693C30.5321 19.576 30.8882 19.4726 31.1908 19.2727C35.5003 16.4226 40.3149 14.4226 45.3754 13.3805C45.7308 13.3073 46.0556 13.1279 46.3069 12.866C46.5582 12.6042 46.724 12.2723 46.7826 11.9142L47.9101 5.01098C47.9496 4.70937 48.0848 4.42836 48.2958 4.20928C48.5068 3.99019 48.7826 3.84457 49.0825 3.79382C50.0474 3.6935 51.0153 3.62415 51.9847 3.58588L51.9452 17.9462C32.8615 18.9214 17.8899 34.6853 17.9006 53.7941C17.9114 72.9029 32.8991 88.6507 51.9847 89.6043L51.9596 103.97C51.0048 103.93 50.0517 103.857 49.1022 103.75C48.801 103.706 48.5221 103.565 48.3075 103.349C48.0929 103.133 47.9541 102.854 47.9119 102.552L46.7826 95.6453C46.724 95.2872 46.5582 94.9553 46.3069 94.6935C46.0556 94.4317 45.7308 94.2523 45.3754 94.179C40.3149 93.136 35.5003 91.1355 31.1908 88.285C30.888 88.0854 30.5318 87.9822 30.1692 87.9893C29.8066 87.9963 29.4546 88.1132 29.1598 88.3244L23.454 92.4187C23.217 92.6031 22.9272 92.7068 22.627 92.7149C22.3267 92.723 22.0318 92.6349 21.7852 92.4635C20.5779 91.454 19.4141 90.3936 18.2968 89.2853C17.1976 88.1993 16.1547 87.0577 15.1723 85.865C14.9841 85.6136 14.8824 85.3079 14.8824 84.9939C14.8824 84.6798 14.9841 84.3741 15.1723 84.1227L19.2576 78.4187C19.4689 78.1239 19.5858 77.7719 19.5928 77.4093C19.5998 77.0467 19.4967 76.6905 19.2971 76.3877C16.4478 72.0753 14.4485 67.2584 13.4067 62.1959C13.3335 61.8407 13.1544 61.5161 12.8929 61.2649C12.6314 61.0137 12.2999 60.8476 11.9421 60.7887L5.04072 59.6576C4.72811 59.6059 4.441 59.4534 4.22318 59.2232C4.00536 58.9931 3.8688 58.6981 3.83432 58.3831C3.49853 55.2998 3.50214 52.189 3.84507 49.1065C3.88853 48.805 4.02853 48.5257 4.24409 48.3105C4.45964 48.0952 4.73915 47.9557 5.04072 47.9127L11.9403 46.7833C12.2994 46.7243 12.632 46.5574 12.894 46.3047C13.1559 46.0521 13.3347 45.7257 13.4067 45.369Z" fill="#0061FF"/>
<path d="M102.177 48.3991C101.068 48.4037 99.9886 48.7506 99.085 49.3924C98.1815 50.0341 97.4982 50.9394 97.1288 51.9843H55.5698V46.6066H84.251C85.6772 46.6066 87.0451 46.04 88.0536 45.0315C89.0621 44.0229 89.6287 42.6551 89.6287 41.2288V31.9361C90.8247 31.5133 91.8327 30.6812 92.4746 29.587C93.1165 28.4928 93.3509 27.2069 93.1364 25.9566C92.9219 24.7063 92.2722 23.572 91.3023 22.7544C90.3324 21.9367 89.1047 21.4882 87.8361 21.4882C86.5675 21.4882 85.3398 21.9367 84.3699 22.7544C83.4 23.572 82.7504 24.7063 82.5358 25.9566C82.3213 27.2069 82.5557 28.4928 83.1976 29.587C83.8395 30.6812 84.8475 31.5133 86.0435 31.9361V41.2288C86.0435 41.7043 85.8547 42.1602 85.5185 42.4964C85.1823 42.8325 84.7264 43.0214 84.251 43.0214H55.5698V37.6437H75.2881C75.7635 37.6437 76.2195 37.4548 76.5556 37.1187C76.8918 36.7825 77.0807 36.3265 77.0807 35.8511C77.0807 35.3757 76.8918 34.9197 76.5556 34.5836C76.2195 34.2474 75.7635 34.0585 75.2881 34.0585H55.5698V30.4734H66.3252C67.7515 30.4734 69.1193 29.9068 70.1278 28.8983C71.1364 27.8898 71.7029 26.5219 71.7029 25.0957V14.0104C72.899 13.5875 73.907 12.7555 74.5489 11.6613C75.1908 10.567 75.4252 9.28115 75.2106 8.03084C74.9961 6.78053 74.3465 5.6463 73.3766 4.82863C72.4067 4.01097 71.1789 3.5625 69.9104 3.5625C68.6418 3.5625 67.414 4.01097 66.4441 4.82863C65.4742 5.6463 64.8246 6.78053 64.6101 8.03084C64.3956 9.28115 64.63 10.567 65.2718 11.6613C65.9137 12.7555 66.9218 13.5875 68.1178 14.0104V25.0957C68.1178 25.5711 67.9289 26.027 67.5928 26.3632C67.2566 26.6994 66.8006 26.8882 66.3252 26.8882H55.0965C54.7946 26.3271 54.3372 25.8649 53.7792 25.5571C53.2212 25.2493 52.5863 25.109 51.9506 25.153C36.8445 26.1103 25.0817 38.6404 25.0817 53.7768C25.0817 68.9133 36.8445 81.4434 51.9506 82.4007H52.1603C52.7612 82.4057 53.3521 82.2467 53.8695 81.941C54.3869 81.6353 54.8111 81.1943 55.0965 80.6655H66.3252C66.8006 80.6655 67.2566 80.8543 67.5928 81.1905C67.9289 81.5267 68.1178 81.9826 68.1178 82.458V93.5433C66.9218 93.9662 65.9137 94.7982 65.2718 95.8924C64.63 96.9867 64.3956 98.2726 64.6101 99.5229C64.8246 100.773 65.4742 101.907 66.4441 102.725C67.414 103.543 68.6418 103.991 69.9104 103.991C71.1789 103.991 72.4067 103.543 73.3766 102.725C74.3465 101.907 74.9961 100.773 75.2106 99.5229C75.4252 98.2726 75.1908 96.9867 74.5489 95.8924C73.907 94.7982 72.899 93.9662 71.7029 93.5433V82.458C71.7029 81.0318 71.1364 79.6639 70.1278 78.6554C69.1193 77.6469 67.7515 77.0803 66.3252 77.0803H55.5698V73.4952H75.2881C75.7635 73.4952 76.2195 73.3063 76.5556 72.9701C76.8918 72.634 77.0807 72.178 77.0807 71.7026C77.0807 71.2272 76.8918 70.7712 76.5556 70.4351C76.2195 70.0989 75.7635 69.91 75.2881 69.91H55.5698V64.5323H84.251C84.7264 64.5323 85.1823 64.7212 85.5185 65.0573C85.8547 65.3935 86.0435 65.8494 86.0435 66.3249V75.6176C84.8475 76.0404 83.8395 76.8725 83.1976 77.9667C82.5557 79.0609 82.3213 80.3468 82.5358 81.5971C82.7504 82.8474 83.4 83.9817 84.3699 84.7993C85.3398 85.617 86.5675 86.0655 87.8361 86.0655C89.1047 86.0655 90.3324 85.617 91.3023 84.7993C92.2722 83.9817 92.9219 82.8474 93.1364 81.5971C93.3509 80.3468 93.1165 79.0609 92.4746 77.9667C91.8327 76.8725 90.8247 76.0404 89.6287 75.6176V66.3249C89.6287 64.8986 89.0621 63.5308 88.0536 62.5223C87.0451 61.5137 85.6772 60.9471 84.251 60.9471H55.5698V55.5694H97.1288C97.459 56.4965 98.0378 57.315 98.8017 57.9354C99.5656 58.5558 100.485 58.9543 101.46 59.0874C102.436 59.2204 103.429 59.0829 104.331 58.6898C105.233 58.2967 106.01 57.6632 106.576 56.8584C107.143 56.0537 107.477 55.1088 107.543 54.1268C107.609 53.1449 107.403 52.1638 106.949 51.2907C106.495 50.4175 105.81 49.6861 104.968 49.1761C104.127 48.6662 103.161 48.3974 102.177 48.3991ZM87.8361 25.0957C88.3115 25.0957 88.7675 25.2845 89.1036 25.6207C89.4398 25.9569 89.6287 26.4128 89.6287 26.8882C89.6287 27.3637 89.4398 27.8196 89.1036 28.1558C88.7675 28.492 88.3115 28.6808 87.8361 28.6808C87.3607 28.6808 86.9047 28.492 86.5686 28.1558C86.2324 27.8196 86.0435 27.3637 86.0435 26.8882C86.0435 26.4128 86.2324 25.9569 86.5686 25.6207C86.9047 25.2845 87.3607 25.0957 87.8361 25.0957ZM69.9104 7.16992C70.3858 7.16992 70.8417 7.35878 71.1779 7.69496C71.5141 8.03113 71.7029 8.48708 71.7029 8.9625C71.7029 9.43792 71.5141 9.89387 71.1779 10.23C70.8417 10.5662 70.3858 10.7551 69.9104 10.7551C69.4349 10.7551 68.979 10.5662 68.6428 10.23C68.3066 9.89387 68.1178 9.43792 68.1178 8.9625C68.1178 8.48708 68.3066 8.03113 68.6428 7.69496C68.979 7.35878 69.4349 7.16992 69.9104 7.16992ZM69.9104 100.384C69.4349 100.384 68.979 100.195 68.6428 99.8587C68.3066 99.5226 68.1178 99.0666 68.1178 98.5912C68.1178 98.1158 68.3066 97.6598 68.6428 97.3237C68.979 96.9875 69.4349 96.7986 69.9104 96.7986C70.3858 96.7986 70.8417 96.9875 71.1779 97.3237C71.5141 97.6598 71.7029 98.1158 71.7029 98.5912C71.7029 99.0666 71.5141 99.5226 71.1779 99.8587C70.8417 100.195 70.3858 100.384 69.9104 100.384ZM87.8361 82.458C87.3607 82.458 86.9047 82.2692 86.5686 81.933C86.2324 81.5968 86.0435 81.1409 86.0435 80.6655C86.0435 80.19 86.2324 79.7341 86.5686 79.3979C86.9047 79.0617 87.3607 78.8729 87.8361 78.8729C88.3115 78.8729 88.7675 79.0617 89.1036 79.3979C89.4398 79.7341 89.6287 80.19 89.6287 80.6655C89.6287 81.1409 89.4398 81.5968 89.1036 81.933C88.7675 82.2692 88.3115 82.458 87.8361 82.458ZM28.6812 53.7768C28.6955 40.6194 38.8612 29.7008 51.9846 28.7453V78.8084C38.8612 77.8529 28.6955 66.9361 28.6812 53.7768ZM102.177 55.5694C101.701 55.5694 101.245 55.3806 100.909 55.0444C100.573 54.7082 100.384 54.2523 100.384 53.7768C100.384 53.3014 100.573 52.8455 100.909 52.5093C101.245 52.1731 101.701 51.9843 102.177 51.9843C102.652 51.9843 103.108 52.1731 103.444 52.5093C103.78 52.8455 103.969 53.3014 103.969 53.7768C103.969 54.2523 103.78 54.7082 103.444 55.0444C103.108 55.3806 102.652 55.5694 102.177 55.5694Z" fill="#0061FF"/>
</svg>
