<svg width="360" height="360" viewBox="0 0 360 360" fill="none" xmlns="http://www.w3.org/2000/svg">
<path d="M266.412 52.1972L92.3098 4.861C84.0862 2.6251 75.6068 7.47925 73.3709 15.7029L43.163 126.808C40.9271 135.031 45.7813 143.511 54.0049 145.747L86.4895 154.579C88.0084 154.992 89.3011 155.991 90.0833 157.357L108.431 189.408C111.058 193.997 117.922 193.119 119.309 188.016L124.581 168.626C124.704 168.174 124.914 167.752 125.2 167.382C125.486 167.012 125.842 166.702 126.248 166.469C126.654 166.237 127.102 166.087 127.565 166.028C128.029 165.968 128.5 166.001 128.952 166.124L228.108 193.083C236.331 195.319 244.81 190.464 247.046 182.241L277.254 71.1361C279.49 62.9125 274.636 54.4331 266.412 52.1972Z" fill="#00B4E6"/>
<path d="M266.412 52.1965L249.231 47.5251C257.455 49.761 262.309 58.2403 260.073 66.464L244.391 124.143C243.651 126.864 241.098 128.725 238.287 128.508C224.514 127.442 211.171 134.975 205.034 147.959L188.766 182.386L228.107 193.082C236.331 195.318 244.81 190.464 247.046 182.24L277.254 71.1354C279.49 62.9117 274.636 54.4324 266.412 52.1965Z" fill="#00A0CC"/>
<path d="M310.797 208.402C303.522 205.132 294.937 208.277 291.514 215.52L299.212 199.232C302.727 191.792 299.601 182.647 292.096 179.274C284.821 176.003 276.236 179.148 272.814 186.391L280.511 170.103C284.027 162.663 280.9 153.518 273.396 150.145C266.12 146.874 257.535 150.019 254.113 157.263L248.887 168.32C252.31 161.077 249.289 152.447 242.143 148.904C234.771 145.247 225.721 148.638 222.206 156.077L186.189 232.292L188.912 217.3C190.382 209.204 184.995 201.18 176.873 199.863C169 198.587 161.521 203.847 160.09 211.729L151.83 257.204C146.16 288.426 162.167 319.565 190.858 333.123C225.867 349.667 267.66 334.699 284.205 299.689L317.912 228.36C321.428 220.922 318.302 211.777 310.797 208.402Z" fill="#FED2A4"/>
<path d="M310.797 208.402C310.511 208.275 310.22 208.156 309.926 208.047L269.83 292.896C254.441 325.46 217.21 340.68 183.91 329.335C186.153 330.727 188.473 331.992 190.858 333.124C225.868 349.668 267.661 334.699 284.205 299.689L317.913 228.36C321.428 220.921 318.302 211.777 310.797 208.402Z" fill="#FFBD86"/>
<path d="M220.904 133.418C208.522 130.052 201.188 117.241 204.555 104.859C207.921 92.4778 220.732 85.1436 233.114 88.51C245.495 91.8763 252.829 104.688 249.463 117.069C246.097 129.451 233.285 136.785 220.904 133.418ZM230.869 96.7655C223.04 94.6368 214.938 99.2745 212.809 107.104C210.681 114.934 215.318 123.035 223.148 125.164C230.978 127.293 239.079 122.655 241.208 114.825C243.337 106.996 238.699 98.8943 230.869 96.7655ZM151.126 114.449C147.112 113.358 146.881 113.251 146.598 113.119C145.683 112.694 144.947 111.958 144.522 111.043C144.096 110.128 144.008 109.092 144.273 108.118L154.23 71.4958C154.528 70.4011 155.248 69.4695 156.233 68.9059C157.217 68.3423 158.385 68.1929 159.48 68.4905C160.575 68.7882 161.506 69.5085 162.07 70.493C162.633 71.4775 162.783 72.6456 162.485 73.7402L153.642 106.266C156.081 106.927 159.319 107.794 162.335 108.596C164.592 109.207 165.977 111.546 165.369 113.829C164.762 116.112 162.419 117.471 160.137 116.863C155.938 115.747 153.083 114.981 151.126 114.449ZM181.28 122.648C177.266 121.556 177.035 121.449 176.752 121.318C175.836 120.892 175.101 120.157 174.676 119.242C174.25 118.326 174.162 117.29 174.427 116.316L184.384 79.6943C184.682 78.5996 185.402 77.668 186.387 77.1044C187.371 76.5408 188.539 76.3913 189.634 76.689C190.729 76.9866 191.66 77.7069 192.224 78.6914C192.787 79.6759 192.937 80.844 192.639 81.9387L183.796 114.464C186.234 115.125 189.473 115.993 192.489 116.794L192.512 116.801C193.055 116.947 193.563 117.198 194.008 117.54C194.454 117.883 194.827 118.309 195.108 118.796C195.388 119.283 195.57 119.82 195.643 120.377C195.715 120.934 195.678 121.5 195.532 122.042C195.386 122.585 195.135 123.093 194.792 123.538C194.45 123.984 194.023 124.357 193.537 124.638C193.05 124.918 192.513 125.1 191.956 125.173C191.399 125.245 190.833 125.208 190.29 125.062C186.092 123.946 183.237 123.18 181.28 122.648ZM72.0989 92.9603C71.0042 92.6626 70.0726 91.9423 69.509 90.9578C68.9454 89.9733 68.796 88.8052 69.0936 87.7105L79.059 51.0577C79.3567 49.9631 80.077 49.0314 81.0615 48.4678C82.046 47.9042 83.2141 47.7548 84.3088 48.0525C85.4034 48.3501 86.3351 49.0704 86.8987 50.0549C87.4623 51.0394 87.6117 52.2075 87.314 53.3022L77.3485 89.9555C77.0507 91.0501 76.3304 91.9815 75.3459 92.545C74.3615 93.1085 73.1935 93.2579 72.0989 92.9603ZM97.4633 99.8565C96.3686 99.5589 95.437 98.8386 94.8734 97.8541C94.3098 96.8695 94.1603 95.7015 94.458 94.6068L104.423 57.954C104.721 56.8593 105.441 55.9277 106.426 55.3641C107.41 54.8005 108.578 54.6511 109.673 54.9487C110.768 55.2463 111.699 55.9666 112.263 56.9511C112.827 57.9356 112.976 59.1037 112.678 60.1984L102.713 96.8518C102.415 97.9463 101.695 98.8778 100.71 99.4412C99.7258 100.005 98.5578 100.154 97.4633 99.8565Z" fill="#DFF6FD"/>
<path d="M102.617 80.9008L77.2526 74.0046C76.1579 73.7069 75.2263 72.9866 74.6627 72.0021C74.0991 71.0176 73.9497 69.8495 74.2473 68.7548C74.5449 67.6602 75.2652 66.7285 76.2497 66.1649C77.2343 65.6013 78.4023 65.4519 79.497 65.7495L104.861 72.6458C105.956 72.9434 106.888 73.6637 107.451 74.6482C108.015 75.6327 108.164 76.8008 107.867 77.8955C107.569 78.9902 106.849 79.9218 105.864 80.4854C104.88 81.049 103.712 81.1984 102.617 80.9008ZM130.089 108.726L114.645 104.527C113.55 104.23 112.618 103.509 112.055 102.525C111.491 101.54 111.342 100.372 111.639 99.2776L121.605 62.6248C121.902 61.5301 122.623 60.5985 123.607 60.0349C124.592 59.4713 125.76 59.3219 126.855 59.6195L142.299 63.8186C143.393 64.1162 144.325 64.8365 144.888 65.821C145.452 66.8055 145.602 67.9736 145.304 69.0683C145.006 70.163 144.286 71.0946 143.301 71.6582C142.317 72.2218 141.149 72.3712 140.054 72.0736L128.738 68.9968L121.016 97.3951L132.333 100.472C133.416 100.78 134.334 101.502 134.888 102.483C135.441 103.463 135.586 104.622 135.291 105.708C134.995 106.795 134.284 107.721 133.31 108.286C132.336 108.851 131.179 109.009 130.089 108.726Z" fill="#DFF6FD"/>
<path d="M133.933 90.0948L119.627 86.2054C118.533 85.9077 117.601 85.1874 117.038 84.2029C116.474 83.2184 116.325 82.0503 116.622 80.9556C116.92 79.8609 117.64 78.9293 118.625 78.3657C119.609 77.8021 120.777 77.6527 121.872 77.9503L136.177 81.8398C137.272 82.1374 138.204 82.8577 138.767 83.8422C139.331 84.8267 139.48 85.9948 139.183 87.0895C138.885 88.1842 138.165 89.1158 137.18 89.6794C136.196 90.243 135.028 90.3924 133.933 90.0948Z" fill="#DFF6FD"/>
<path d="M116.397 237.658C115.365 237.376 114.476 236.717 113.905 235.812C113.335 234.906 113.125 233.82 113.316 232.767L116.762 213.794C116.863 213.241 117.071 212.714 117.375 212.241C117.679 211.769 118.074 211.362 118.536 211.042C118.997 210.722 119.518 210.496 120.067 210.377C120.616 210.259 121.183 210.249 121.735 210.35C122.288 210.45 122.816 210.658 123.288 210.962C123.76 211.266 124.168 211.66 124.488 212.122C124.808 212.584 125.034 213.105 125.152 213.654C125.271 214.203 125.28 214.77 125.179 215.323L121.733 234.296C121.628 234.879 121.401 235.435 121.069 235.926C120.737 236.418 120.307 236.835 119.805 237.151C119.303 237.467 118.741 237.675 118.155 237.763C117.568 237.85 116.97 237.814 116.397 237.658ZM315.524 149.368C314.865 149.189 314.258 148.856 313.755 148.395C313.251 147.934 312.865 147.359 312.629 146.718C309.47 138.146 304.049 130.717 296.954 125.235C296.056 124.541 295.471 123.519 295.326 122.394C295.182 121.269 295.491 120.132 296.184 119.235C296.878 118.337 297.9 117.752 299.025 117.607C300.15 117.463 301.287 117.772 302.184 118.465C310.553 124.931 316.94 133.678 320.656 143.759C320.928 144.496 320.992 145.293 320.84 146.064C320.689 146.834 320.329 147.548 319.799 148.127C319.269 148.706 318.589 149.128 317.835 149.347C317.081 149.566 316.282 149.573 315.524 149.368ZM133.346 250.617C132.314 250.335 131.425 249.676 130.854 248.771C130.284 247.865 130.073 246.779 130.265 245.726L137.195 207.569C137.295 207.016 137.503 206.489 137.808 206.016C138.112 205.544 138.506 205.137 138.968 204.817C139.43 204.497 139.95 204.271 140.499 204.153C141.048 204.034 141.615 204.024 142.168 204.125C144.492 204.544 146.034 206.773 145.612 209.098L138.681 247.255C138.575 247.838 138.349 248.393 138.017 248.885C137.685 249.376 137.255 249.793 136.753 250.109C136.252 250.425 135.69 250.634 135.103 250.721C134.517 250.809 133.918 250.773 133.346 250.617ZM297.708 155.938C297.049 155.76 296.442 155.426 295.938 154.966C295.434 154.505 295.049 153.93 294.813 153.289C293.274 149.116 290.92 145.461 287.816 142.425C287.005 141.632 286.542 140.549 286.53 139.415C286.517 138.28 286.955 137.187 287.749 136.376C288.542 135.565 289.625 135.103 290.759 135.09C291.893 135.077 292.986 135.516 293.797 136.309C297.816 140.239 300.858 144.956 302.84 150.328C303.232 151.393 303.186 152.569 302.711 153.6C302.236 154.63 301.371 155.429 300.306 155.822C299.474 156.131 298.565 156.171 297.708 155.938Z" fill="#E67D00"/>
<path d="M205.415 294.82L206.502 292.519C212.779 279.236 209.778 263.579 199.036 253.558L186.786 242.13C186.086 241.475 185.569 240.649 185.285 239.733C185.001 238.817 184.961 237.843 185.167 236.906L186.2 232.269L186.188 232.293L188.911 217.301C189.8 212.408 188.181 207.545 184.971 204.169L177.935 230.049C177.917 230.113 177.902 230.176 177.887 230.241L176.816 235.046C175.737 239.889 177.321 245.001 180.95 248.386L193.2 259.813C201.209 267.285 203.447 278.96 198.767 288.864L197.68 291.164C197.412 291.73 197.272 292.347 197.269 292.973C197.266 293.598 197.401 294.217 197.663 294.785C197.925 295.353 198.308 295.857 198.786 296.26C199.264 296.664 199.825 296.958 200.429 297.121C201.398 297.384 202.428 297.297 203.34 296.876C204.251 296.455 204.986 295.727 205.415 294.82ZM297.292 183.269L266.339 248.769L247.534 239.883L280.538 170.042C283.04 164.686 282.11 158.46 278.591 154.141L239.8 236.228L220.994 227.342L248.914 168.261C251.406 162.923 250.409 156.845 246.85 152.607L213.26 223.687L211.598 222.902C209.464 221.894 206.912 222.805 205.903 224.941C205.663 225.449 205.525 225.999 205.498 226.56C205.47 227.121 205.554 227.682 205.743 228.211C205.932 228.74 206.224 229.226 206.601 229.642C206.979 230.058 207.434 230.396 207.942 230.636L272.08 260.945C273.105 261.429 274.281 261.487 275.349 261.104C276.417 260.722 277.289 259.931 277.774 258.905C278.014 258.398 278.152 257.848 278.179 257.287C278.207 256.726 278.124 256.165 277.934 255.636C277.745 255.107 277.453 254.621 277.076 254.205C276.699 253.789 276.243 253.451 275.735 253.211L274.073 252.426L299.238 199.175C301.741 193.816 300.812 187.589 297.292 183.269Z" fill="#FFBD86"/>
</svg>
