<svg width="588" height="588" viewBox="0 0 588 588" fill="none" xmlns="http://www.w3.org/2000/svg">
<path d="M588 449.703H0V449.997H588V449.703Z" fill="#EBEBEB"/>
<path d="M529.082 468.625H490.133V468.919H529.082V468.625Z" fill="#EBEBEB"/>
<path d="M389.515 471.824H379.295V472.118H389.515V471.824Z" fill="#EBEBEB"/>
<path d="M488.957 457.711H466.39V458.005H488.957V457.711Z" fill="#EBEBEB"/>
<path d="M112.484 459.688H61.693V459.981H112.484V459.688Z" fill="#EBEBEB"/>
<path d="M130.407 459.688H122.963V459.981H130.407V459.688Z" fill="#EBEBEB"/>
<path d="M264.776 464.648H154.609V464.942H264.776V464.648Z" fill="#EBEBEB"/>
<path d="M278.712 397.252H51.6381C49.8593 397.249 48.1543 396.541 46.8975 395.282C45.6408 394.023 44.9349 392.316 44.9349 390.538V71.3358C44.9504 69.5672 45.6631 67.876 46.9182 66.6298C48.1733 65.3835 49.8694 64.6827 51.6381 64.6797H278.712C280.493 64.6797 282.201 65.3872 283.46 66.6465C284.719 67.9058 285.427 69.6137 285.427 71.3946V390.538C285.427 392.318 284.719 394.026 283.46 395.286C282.201 396.545 280.493 397.252 278.712 397.252ZM51.6381 64.9149C49.9372 64.918 48.3071 65.5959 47.1054 66.7997C45.9038 68.0035 45.2289 69.6349 45.2289 71.3358V390.538C45.2289 392.238 45.9038 393.87 47.1054 395.074C48.3071 396.277 49.9372 396.955 51.6381 396.958H278.712C280.414 396.955 282.045 396.278 283.249 395.074C284.452 393.871 285.13 392.24 285.133 390.538V71.3358C285.13 69.6339 284.452 68.0025 283.249 66.799C282.045 65.5955 280.414 64.918 278.712 64.9149H51.6381Z" fill="#EBEBEB"/>
<path d="M533.093 397.252H306.007C304.227 397.249 302.521 396.541 301.262 395.282C300.004 394.024 299.295 392.317 299.292 390.538V71.3358C299.311 69.5661 300.026 67.875 301.283 66.629C302.54 65.3831 304.237 64.6827 306.007 64.6797H533.093C534.859 64.6858 536.552 65.3879 537.805 66.6339C539.057 67.8798 539.769 69.5692 539.784 71.3358V390.538C539.784 392.314 539.08 394.019 537.826 395.277C536.571 396.536 534.869 397.246 533.093 397.252ZM306.007 64.9149C304.305 64.918 302.674 65.5955 301.47 66.799C300.267 68.0025 299.589 69.6339 299.586 71.3358V390.538C299.589 392.24 300.267 393.871 301.47 395.074C302.674 396.278 304.305 396.955 306.007 396.958H533.093C534.795 396.955 536.426 396.278 537.629 395.074C538.833 393.871 539.51 392.24 539.514 390.538V71.3358C539.51 69.6339 538.833 68.0025 537.629 66.799C536.426 65.5955 534.795 64.918 533.093 64.9149H306.007Z" fill="#EBEBEB"/>
<path d="M284.992 204.484H118.023V449.292H284.992V204.484Z" fill="#F0F0F0"/>
<path d="M279.088 212.184H123.915V257.401H279.088V212.184Z" fill="#E0E0E0"/>
<path d="M132.735 219.5H123.915V257.391H132.735V219.5Z" fill="#EBEBEB"/>
<path d="M175.365 219.5H166.545V257.391H175.365V219.5Z" fill="#EBEBEB"/>
<path d="M223.748 218.549L215.056 220.047L221.493 257.387L230.184 255.889L223.748 218.549Z" fill="#EBEBEB"/>
<path d="M143.66 224.5H134.84V257.404H143.66V224.5Z" fill="#EBEBEB"/>
<path d="M163.923 224.5H155.103V257.404H163.923V224.5Z" fill="#EBEBEB"/>
<path d="M215.067 224.5H206.247V257.404H215.067V224.5Z" fill="#EBEBEB"/>
<path d="M186.95 223.356L178.34 225.27L185.479 257.39L194.089 255.477L186.95 223.356Z" fill="#EBEBEB"/>
<path d="M151.281 217.617H146.871V257.389H151.281V217.617Z" fill="#EBEBEB"/>
<path d="M203.707 217.617H199.297V257.389H203.707V217.617Z" fill="#EBEBEB"/>
<path d="M123.927 309.781H279.1V264.564H123.927V309.781Z" fill="#E0E0E0"/>
<path d="M270.268 309.77H279.088V271.879H270.268V309.77Z" fill="#EBEBEB"/>
<path d="M227.65 309.77H236.47V271.879H227.65V309.77Z" fill="#EBEBEB"/>
<path d="M172.833 308.264L181.525 309.762L187.961 272.422L179.27 270.923L172.833 308.264Z" fill="#EBEBEB"/>
<path d="M259.343 309.781H268.163V276.877H259.343V309.781Z" fill="#EBEBEB"/>
<path d="M239.093 309.781H247.913V276.877H239.093V309.781Z" fill="#EBEBEB"/>
<path d="M187.948 309.781H196.768V276.877H187.948V309.781Z" fill="#EBEBEB"/>
<path d="M208.955 307.86L217.565 309.773L224.704 277.653L216.094 275.739L208.955 307.86Z" fill="#EBEBEB"/>
<path d="M251.723 309.77H256.133V269.997H251.723V309.77Z" fill="#EBEBEB"/>
<path d="M199.309 309.77H203.719V269.997H199.309V309.77Z" fill="#EBEBEB"/>
<path d="M132.735 271.879H123.915V309.77H132.735V271.879Z" fill="#EBEBEB"/>
<path d="M143.66 276.867H134.84V309.772H143.66V276.867Z" fill="#EBEBEB"/>
<path d="M163.923 276.867H155.103V309.772H163.923V276.867Z" fill="#EBEBEB"/>
<path d="M151.281 269.996H146.871V309.768H151.281V269.996Z" fill="#EBEBEB"/>
<path d="M279.088 316.934H123.915V362.151H279.088V316.934Z" fill="#E0E0E0"/>
<path d="M221.805 324.246H212.985V362.137H221.805V324.246Z" fill="#EBEBEB"/>
<path d="M270.195 323.291L261.503 324.789L267.94 362.129L276.632 360.631L270.195 323.291Z" fill="#EBEBEB"/>
<path d="M190.1 329.246H181.28V362.151H190.1V329.246Z" fill="#EBEBEB"/>
<path d="M210.363 329.246H201.543V362.151H210.363V329.246Z" fill="#EBEBEB"/>
<path d="M261.507 329.246H252.687V362.151H261.507V329.246Z" fill="#EBEBEB"/>
<path d="M233.394 328.102L224.784 330.016L231.923 362.136L240.533 360.223L233.394 328.102Z" fill="#EBEBEB"/>
<path d="M197.721 322.363H193.311V362.136H197.721V322.363Z" fill="#EBEBEB"/>
<path d="M250.147 322.363H245.737V362.136H250.147V322.363Z" fill="#EBEBEB"/>
<path d="M168.781 323.303L160.089 324.801L166.525 362.141L175.217 360.643L168.781 323.303Z" fill="#EBEBEB"/>
<path d="M160.089 329.246H151.269V362.151H160.089V329.246Z" fill="#EBEBEB"/>
<path d="M131.981 328.102L123.371 330.016L130.509 362.136L139.119 360.223L131.981 328.102Z" fill="#EBEBEB"/>
<path d="M148.741 322.363H144.331V362.136H148.741V322.363Z" fill="#EBEBEB"/>
<path d="M89.2114 449.926H118.023L118.023 204.483H89.2114L89.2114 449.926Z" fill="#E0E0E0"/>
<path d="M382.717 443.517H358.245L371.11 338.688C371.419 336.498 372.495 334.489 374.147 333.018C375.799 331.547 377.919 330.71 380.13 330.656H486.864L471.211 443.47L382.717 443.517Z" fill="#F5F5F5"/>
<path d="M460.333 443.515H484.806L497.683 338.687C497.84 337.679 497.774 336.649 497.489 335.67C497.204 334.69 496.708 333.786 496.035 333.019C495.362 332.253 494.528 331.644 493.594 331.236C492.659 330.827 491.647 330.629 490.627 330.655H482.219C480.012 330.722 477.899 331.564 476.25 333.032C474.601 334.501 473.521 336.502 473.199 338.687L460.333 443.515Z" fill="#F0F0F0"/>
<path d="M451.325 443.35L455.759 392.664C455.852 391.565 456.32 390.531 457.084 389.734C457.848 388.938 458.862 388.428 459.957 388.29L461.78 388.054C463.251 387.87 464.614 387.185 465.64 386.114C466.666 385.044 467.292 383.652 467.413 382.174L468.224 372.931C468.304 372.035 468.197 371.132 467.909 370.28C467.621 369.427 467.158 368.644 466.551 367.981C465.944 367.317 465.205 366.787 464.381 366.424C463.558 366.062 462.668 365.875 461.768 365.875H502.669C503.569 365.875 504.459 366.062 505.282 366.424C506.106 366.787 506.845 367.317 507.452 367.981C508.059 368.644 508.522 369.427 508.81 370.28C509.098 371.132 509.206 372.035 509.126 372.931L508.314 382.174C508.193 383.652 507.567 385.044 506.542 386.114C505.516 387.185 504.153 387.87 502.681 388.054L500.858 388.29C499.764 388.43 498.752 388.941 497.988 389.737C497.224 390.532 496.756 391.566 496.66 392.664L492.227 443.35C492.068 445.131 491.249 446.789 489.93 447.996C488.611 449.204 486.888 449.875 485.1 449.877H444.199C445.987 449.875 447.71 449.204 449.029 447.996C450.348 446.789 451.167 445.131 451.325 443.35Z" fill="#E6E6E6"/>
<path d="M338.759 380.022C338.434 376.175 336.677 372.589 333.835 369.976C330.993 367.362 327.273 365.911 323.412 365.91H359.021C362.872 365.926 366.577 367.383 369.407 369.996C372.237 372.608 373.986 376.185 374.309 380.022L377.837 420.194H342.275L338.759 380.022Z" fill="#E6E6E6"/>
<path d="M307.595 365.961H323.4C327.261 365.962 330.981 367.413 333.823 370.026C336.665 372.64 338.423 376.225 338.747 380.073L342.275 420.245H427.088L430.616 380.073C430.937 376.235 432.685 372.656 435.515 370.043C438.345 367.431 442.052 365.974 445.904 365.961H461.721C462.621 365.961 463.511 366.148 464.334 366.51C465.158 366.873 465.897 367.403 466.504 368.066C467.111 368.73 467.574 369.513 467.862 370.366C468.15 371.218 468.257 372.121 468.177 373.017L467.366 382.26C467.245 383.738 466.619 385.13 465.593 386.2C464.568 387.271 463.204 387.956 461.733 388.14L459.91 388.375C458.815 388.514 457.801 389.024 457.037 389.82C456.273 390.617 455.805 391.651 455.712 392.75L451.325 443.353C451.167 445.135 450.348 446.792 449.029 448C447.71 449.208 445.987 449.879 444.199 449.88H325.164C323.376 449.879 321.653 449.208 320.334 448C319.015 446.792 318.196 445.135 318.037 443.353L313.604 392.668C313.506 391.57 313.037 390.538 312.274 389.743C311.51 388.947 310.499 388.436 309.406 388.293L307.583 388.058C306.111 387.872 304.747 387.187 303.72 386.117C302.693 385.047 302.064 383.656 301.938 382.178L301.138 372.935C301.07 372.045 301.187 371.151 301.48 370.309C301.774 369.466 302.238 368.693 302.844 368.039C303.45 367.384 304.185 366.861 305.003 366.504C305.82 366.146 306.702 365.962 307.595 365.961Z" fill="#F0F0F0"/>
<path d="M120.14 192.254C120.14 192.254 118.835 183.657 125.103 178.142C131.371 172.626 130.818 169.357 129.019 168.934C127.22 168.51 125.585 174.014 122.833 175.531C122.833 175.531 122.739 167.675 125.538 164.794C128.337 161.913 129.807 154.445 127.137 154.316C124.468 154.187 124.209 158.738 123.609 161.972C123.01 165.206 120.081 169.745 120.081 169.745C120.081 169.745 119.505 162.689 117.729 159.832C115.954 156.974 120.74 150.329 118.905 147.448C117.071 144.567 113.743 150.059 114.013 156.257C114.284 162.454 118.423 169.063 117.459 175.531C117.459 175.531 115.636 170.98 114.001 170.568C112.367 170.157 110.709 167.158 109.615 166.041C108.521 164.924 107.134 168.781 109.615 172.356C112.096 175.931 118.423 185.515 117.459 193.253L120.14 192.254Z" fill="#E6E6E6"/>
<path d="M123.88 188.336L125.938 201.213C126.086 202.148 126.029 203.104 125.772 204.015C125.515 204.926 125.064 205.77 124.449 206.49C123.834 207.21 123.071 207.788 122.211 208.184C121.352 208.581 120.416 208.786 119.47 208.787H117.282C116.336 208.786 115.401 208.581 114.541 208.184C113.682 207.788 112.918 207.21 112.303 206.49C111.689 205.77 111.237 204.926 110.98 204.015C110.723 203.104 110.667 202.148 110.814 201.213L112.896 188.336H123.88Z" fill="#E6E6E6"/>
<path d="M247.019 206.27H253.404V178.81H247.019V206.27Z" fill="#EBEBEB"/>
<path d="M216.137 206.27H222.523V178.81H216.137V206.27Z" fill="#EBEBEB"/>
<path d="M176.417 205.177L182.71 206.262L187.374 179.201L181.081 178.116L176.417 205.177Z" fill="#EBEBEB"/>
<path d="M239.104 206.258H245.49V182.42H239.104V206.258Z" fill="#EBEBEB"/>
<path d="M224.428 206.258H230.814V182.42H224.428V206.258Z" fill="#EBEBEB"/>
<path d="M187.36 206.258H193.746V182.42H187.36V206.258Z" fill="#EBEBEB"/>
<path d="M202.59 204.876L208.823 206.262L213.995 182.992L207.761 181.607L202.59 204.876Z" fill="#EBEBEB"/>
<path d="M233.577 206.27H236.776V177.446H233.577V206.27Z" fill="#EBEBEB"/>
<path d="M195.581 206.27H198.779V177.446H195.581V206.27Z" fill="#EBEBEB"/>
<path d="M172.813 184.469H141.684V205.954H172.813V184.469Z" fill="#EBEBEB"/>
<path d="M279.57 193.262H253.499V209.302H279.57V193.262Z" fill="#EBEBEB"/>
<path d="M273.479 179.164H260.437V195.205H273.479V179.164Z" fill="#EBEBEB"/>
<path d="M491.344 157.938H460.333V287.156H491.344V157.938Z" fill="#E0E0E0"/>
<path d="M372.039 287.508H488.016V157.948H372.039V287.508Z" fill="#E0E0E0"/>
<path d="M368.3 287.508H488.628V157.948L368.3 157.948V287.508Z" fill="#F0F0F0"/>
<path d="M373.451 281.547H483.689V162.065H373.451V281.547Z" fill="white"/>
<path d="M373.439 281.547H375.485V162.065H373.439V281.547Z" fill="#E0E0E0"/>
<path d="M375.156 247.996V251.219H483.983V247.996H375.156Z" fill="#E0E0E0"/>
<path d="M373.439 247.984H485.406V242.575H373.439V247.984Z" fill="#F0F0F0"/>
<path d="M294 502.812C419.929 502.812 522.015 496.852 522.015 489.5C522.015 482.148 419.929 476.188 294 476.188C168.071 476.188 65.9854 482.148 65.9854 489.5C65.9854 496.852 168.071 502.812 294 502.812Z" fill="#F5F5F5"/>
<path d="M378.613 179.715H168.215C163.461 179.715 159.607 183.569 159.607 188.323V436.059C159.607 440.814 163.461 444.668 168.215 444.668H378.613C383.367 444.668 387.221 440.814 387.221 436.059V188.323C387.221 183.569 383.367 179.715 378.613 179.715Z" fill="#407BFF"/>
<path opacity="0.6" d="M378.613 179.715H168.215C163.461 179.715 159.607 183.569 159.607 188.323V436.059C159.607 440.814 163.461 444.668 168.215 444.668H378.613C383.367 444.668 387.221 440.814 387.221 436.059V188.323C387.221 183.569 383.367 179.715 378.613 179.715Z" fill="white"/>
<path d="M350.354 301.23H196.486V327.573H350.354V301.23Z" fill="white"/>
<g opacity="0.4">
<path d="M210.245 316.965V317.659H204.906V310.109H210.081V310.791H205.706V313.484H209.61V314.155H205.706V316.965H210.245Z" fill="#263238"/>
<path d="M211.315 314.402H214.15V315.061H211.315V314.402Z" fill="#263238"/>
<path d="M225.216 314.367V317.66H224.451V314.438C224.451 313.262 223.852 312.627 222.828 312.627C222.563 312.615 222.298 312.66 222.053 312.761C221.807 312.862 221.586 313.015 221.406 313.21C221.226 313.405 221.09 313.637 221.009 313.889C220.927 314.142 220.902 314.41 220.935 314.673V317.66H220.159V314.438C220.159 313.262 219.559 312.627 218.524 312.627C218.259 312.615 217.994 312.66 217.749 312.761C217.503 312.862 217.282 313.015 217.102 313.21C216.922 313.405 216.786 313.637 216.705 313.889C216.623 314.142 216.598 314.41 216.631 314.673V317.66H215.855V311.98H216.596V313.015C216.818 312.668 217.127 312.386 217.492 312.196C217.857 312.006 218.266 311.915 218.677 311.933C219.093 311.898 219.509 311.992 219.869 312.202C220.229 312.413 220.515 312.73 220.688 313.109C220.923 312.73 221.256 312.421 221.651 312.214C222.046 312.007 222.489 311.91 222.934 311.933C223.254 311.909 223.574 311.956 223.872 312.072C224.171 312.188 224.439 312.37 224.658 312.604C224.877 312.837 225.041 313.117 225.137 313.422C225.234 313.727 225.261 314.05 225.216 314.367Z" fill="#263238"/>
<path d="M231.59 314.132V317.66H230.849V316.766C230.638 317.084 230.346 317.34 230.002 317.505C229.659 317.671 229.277 317.741 228.897 317.707C227.615 317.707 226.827 317.037 226.827 316.061C226.827 315.084 227.391 314.449 229.014 314.449H230.814V314.108C230.814 313.132 230.273 312.603 229.214 312.603C228.524 312.595 227.853 312.833 227.321 313.273L226.98 312.709C227.644 312.174 228.48 311.899 229.332 311.933C229.632 311.896 229.937 311.927 230.223 312.024C230.51 312.121 230.771 312.281 230.987 312.492C231.204 312.703 231.371 312.96 231.475 313.243C231.579 313.527 231.618 313.831 231.59 314.132ZM230.814 315.955V315.026H229.038C227.944 315.026 227.58 315.449 227.58 316.037C227.58 316.625 228.109 317.107 229.014 317.107C229.398 317.133 229.78 317.034 230.104 316.827C230.427 316.62 230.676 316.314 230.814 315.955Z" fill="#263238"/>
<path d="M233.495 310.193C233.496 310.121 233.512 310.049 233.541 309.983C233.571 309.916 233.613 309.856 233.665 309.806C233.717 309.756 233.779 309.716 233.847 309.69C233.915 309.664 233.987 309.651 234.059 309.652C234.13 309.651 234.201 309.663 234.267 309.689C234.333 309.715 234.394 309.753 234.445 309.803C234.497 309.852 234.538 309.91 234.566 309.976C234.595 310.041 234.61 310.111 234.612 310.182C234.614 310.255 234.6 310.328 234.573 310.397C234.546 310.465 234.506 310.528 234.454 310.58C234.403 310.633 234.341 310.674 234.274 310.703C234.206 310.731 234.133 310.746 234.059 310.746C233.986 310.748 233.913 310.735 233.844 310.707C233.776 310.68 233.713 310.64 233.661 310.588C233.608 310.537 233.566 310.476 233.538 310.408C233.509 310.34 233.495 310.267 233.495 310.193ZM233.671 311.981H234.436V317.661H233.671V311.981Z" fill="#263238"/>
<path d="M236.564 309.652H237.329V317.661H236.564V309.652Z" fill="#263238"/>
</g>
<path d="M350.354 337.215H196.486V363.557H350.354V337.215Z" fill="white"/>
<g opacity="0.4">
<path d="M210.81 348.716C210.81 350.327 209.634 351.303 207.729 351.303H205.706V353.655H204.906V346.105H207.729C209.646 346.129 210.81 347.105 210.81 348.716ZM210.01 348.716C210.01 347.54 209.222 346.823 207.658 346.823H205.659V350.598H207.658C209.222 350.598 210.01 349.904 210.01 348.716Z" fill="#263238"/>
<path d="M216.607 350.165V353.693H215.867V352.799C215.656 353.118 215.364 353.373 215.02 353.539C214.676 353.704 214.294 353.774 213.914 353.74C212.633 353.74 211.845 353.07 211.845 352.082C211.845 351.094 212.409 350.447 214.032 350.447H215.831V350.095C215.831 349.13 215.279 348.601 214.22 348.601C213.533 348.592 212.865 348.83 212.339 349.271L211.986 348.695C212.656 348.172 213.488 347.902 214.338 347.931C214.642 347.891 214.951 347.922 215.242 348.02C215.533 348.117 215.798 348.28 216.017 348.495C216.235 348.711 216.402 348.973 216.505 349.262C216.607 349.552 216.642 349.86 216.607 350.165ZM215.843 351.976V351.047H214.032C212.938 351.047 212.586 351.482 212.586 352.07C212.586 352.658 213.103 353.129 214.02 353.129C214.408 353.157 214.794 353.061 215.122 352.853C215.45 352.646 215.703 352.338 215.843 351.976Z" fill="#263238"/>
<path d="M217.901 353.034L218.242 352.434C218.835 352.848 219.541 353.07 220.265 353.069C221.335 353.069 221.782 352.704 221.782 352.14C221.782 350.658 218.101 351.822 218.101 349.588C218.101 348.659 218.901 347.965 220.347 347.965C221.053 347.959 221.747 348.141 222.358 348.494L222.017 349.106C221.522 348.779 220.94 348.611 220.347 348.624C219.324 348.624 218.865 349.023 218.865 349.564C218.865 351.093 222.546 349.941 222.546 352.116C222.546 353.104 221.688 353.739 220.194 353.739C219.373 353.76 218.568 353.513 217.901 353.034Z" fill="#263238"/>
<path d="M223.169 353.034L223.522 352.434C224.109 352.853 224.813 353.075 225.533 353.069C226.615 353.069 227.05 352.704 227.05 352.14C227.05 350.658 223.381 351.822 223.381 349.588C223.381 348.659 224.181 347.965 225.616 347.965C226.321 347.956 227.017 348.139 227.627 348.494L227.297 349.106C226.798 348.78 226.212 348.612 225.616 348.624C224.592 348.624 224.146 349.024 224.146 349.565C224.146 351.093 227.826 349.941 227.826 352.116C227.826 353.104 226.956 353.739 225.474 353.739C224.65 353.759 223.842 353.511 223.169 353.034Z" fill="#263238"/>
<path d="M237.446 348.012L235.306 353.68H234.588L232.848 349.035L231.06 353.68H230.343L228.144 348.012H228.873L230.661 352.833L232.483 348.012H233.142L234.953 352.833L236.752 348.012H237.446Z" fill="#263238"/>
<path d="M237.87 350.846C237.87 350.274 238.039 349.715 238.357 349.239C238.675 348.763 239.127 348.392 239.655 348.173C240.184 347.954 240.766 347.897 241.327 348.009C241.888 348.12 242.404 348.396 242.808 348.8C243.213 349.205 243.488 349.721 243.6 350.282C243.712 350.843 243.654 351.425 243.435 351.953C243.216 352.482 242.846 352.934 242.37 353.251C241.894 353.569 241.335 353.739 240.763 353.739C240.379 353.752 239.997 353.686 239.64 353.546C239.283 353.405 238.959 353.192 238.688 352.921C238.416 352.65 238.204 352.325 238.063 351.968C237.922 351.612 237.856 351.23 237.87 350.846ZM242.868 350.846C242.849 350.431 242.709 350.031 242.465 349.696C242.221 349.36 241.884 349.103 241.495 348.958C241.106 348.812 240.683 348.784 240.279 348.877C239.874 348.97 239.506 349.18 239.22 349.481C238.934 349.781 238.742 350.159 238.669 350.568C238.596 350.976 238.645 351.397 238.809 351.779C238.974 352.16 239.246 352.484 239.594 352.711C239.941 352.939 240.347 353.059 240.763 353.057C241.05 353.063 241.335 353.008 241.6 352.898C241.865 352.787 242.104 352.623 242.302 352.415C242.5 352.207 242.652 351.96 242.75 351.69C242.847 351.42 242.887 351.133 242.868 350.846Z" fill="#263238"/>
<path d="M248.065 347.964V348.705H247.877C247.608 348.692 247.34 348.739 247.091 348.841C246.842 348.944 246.618 349.1 246.436 349.299C246.255 349.497 246.119 349.734 246.038 349.991C245.958 350.248 245.936 350.52 245.972 350.786V353.679H245.208V348.011H245.937V349.117C246.135 348.733 246.444 348.418 246.824 348.213C247.203 348.007 247.636 347.921 248.065 347.964Z" fill="#263238"/>
<path d="M254.569 345.742V353.739H253.84V352.622C253.611 352.994 253.289 353.298 252.905 353.505C252.52 353.711 252.088 353.812 251.652 353.798C250.918 353.751 250.23 353.426 249.727 352.89C249.224 352.354 248.944 351.646 248.944 350.911C248.944 350.175 249.224 349.468 249.727 348.931C250.23 348.395 250.918 348.07 251.652 348.024C252.083 348.014 252.508 348.118 252.885 348.324C253.263 348.53 253.58 348.832 253.804 349.2V345.742H254.569ZM253.816 350.905C253.798 350.49 253.658 350.09 253.414 349.754C253.17 349.419 252.832 349.162 252.444 349.016C252.055 348.871 251.632 348.843 251.227 348.936C250.823 349.029 250.455 349.239 250.168 349.539C249.882 349.84 249.691 350.218 249.618 350.627C249.545 351.035 249.593 351.456 249.758 351.837C249.922 352.218 250.195 352.543 250.542 352.77C250.89 352.997 251.296 353.118 251.711 353.116C252.003 353.122 252.294 353.066 252.563 352.952C252.833 352.838 253.075 352.668 253.274 352.454C253.473 352.239 253.624 351.985 253.717 351.708C253.811 351.431 253.844 351.137 253.816 350.846V350.905Z" fill="#263238"/>
</g>
<path opacity="0.2" d="M350.354 390.43H196.486V416.772H350.354V390.43Z" fill="black"/>
<g opacity="0.5">
<path d="M233.906 378.328H231.39L230.849 379.504H230.355L232.413 375H232.883L234.941 379.504H234.447L233.906 378.328ZM233.73 377.94L232.648 375.517L231.566 377.94H233.73Z" fill="black"/>
<path d="M235.6 374.754H236.058V379.528H235.6V374.754Z" fill="black"/>
<path d="M239.046 376.117V376.564H238.928C238.764 376.549 238.598 376.573 238.445 376.631C238.291 376.69 238.152 376.783 238.039 376.903C237.926 377.023 237.841 377.166 237.791 377.324C237.742 377.481 237.728 377.647 237.752 377.81V379.539H237.293V376.152H237.74V376.81C237.858 376.573 238.047 376.378 238.281 376.254C238.516 376.13 238.783 376.082 239.046 376.117Z" fill="black"/>
<path d="M242.785 377.976H239.904C239.913 378.141 239.955 378.302 240.026 378.451C240.098 378.599 240.199 378.732 240.323 378.842C240.446 378.951 240.59 379.035 240.747 379.088C240.903 379.141 241.068 379.163 241.233 379.152C241.428 379.158 241.623 379.123 241.803 379.048C241.984 378.973 242.146 378.86 242.279 378.717L242.526 379.011C242.283 379.266 241.97 379.444 241.627 379.521C241.283 379.599 240.924 379.574 240.595 379.448C240.265 379.322 239.98 379.102 239.776 378.815C239.572 378.528 239.456 378.187 239.445 377.835C239.434 377.611 239.469 377.388 239.547 377.178C239.626 376.969 239.747 376.778 239.902 376.617C240.058 376.456 240.244 376.328 240.451 376.242C240.658 376.157 240.88 376.114 241.103 376.118C241.327 376.112 241.55 376.154 241.757 376.239C241.963 376.324 242.15 376.452 242.305 376.613C242.46 376.775 242.58 376.967 242.656 377.177C242.733 377.387 242.765 377.611 242.75 377.835C242.75 377.835 242.785 377.929 242.785 377.976ZM239.951 377.635H242.303C242.303 377.323 242.179 377.024 241.959 376.803C241.738 376.583 241.439 376.459 241.127 376.459C240.815 376.459 240.516 376.583 240.295 376.803C240.075 377.024 239.951 377.323 239.951 377.635Z" fill="black"/>
<path d="M246.184 377.494V379.587H245.784V379.058C245.659 379.252 245.483 379.407 245.276 379.507C245.068 379.606 244.837 379.646 244.608 379.623C243.844 379.623 243.432 379.223 243.432 378.635C243.432 378.047 243.761 377.671 244.737 377.671H245.784V377.471C245.784 376.894 245.455 376.577 244.82 376.577C244.392 376.561 243.973 376.703 243.644 376.977L243.444 376.636C243.834 376.325 244.321 376.162 244.82 376.177C245.002 376.146 245.188 376.158 245.365 376.212C245.541 376.267 245.702 376.362 245.835 376.49C245.968 376.618 246.069 376.776 246.129 376.951C246.19 377.125 246.209 377.311 246.184 377.494ZM245.737 378.576V378.012H244.667C244.008 378.012 243.797 378.27 243.797 378.623C243.797 378.976 244.114 379.258 244.655 379.258C244.899 379.277 245.141 379.214 245.346 379.08C245.55 378.946 245.704 378.748 245.784 378.517L245.737 378.576Z" fill="black"/>
<path d="M250.488 374.754V379.528H250.053V378.858C249.919 379.083 249.727 379.267 249.498 379.391C249.268 379.515 249.009 379.575 248.748 379.564C248.315 379.528 247.912 379.331 247.618 379.012C247.324 378.693 247.161 378.275 247.161 377.841C247.161 377.407 247.324 376.989 247.618 376.67C247.912 376.351 248.315 376.154 248.748 376.118C249.002 376.111 249.255 376.169 249.481 376.286C249.707 376.404 249.9 376.576 250.041 376.788V374.754H250.488ZM250.041 377.835C250.03 377.589 249.946 377.352 249.801 377.153C249.656 376.954 249.456 376.802 249.225 376.715C248.994 376.629 248.743 376.612 248.503 376.667C248.263 376.722 248.044 376.846 247.874 377.025C247.704 377.203 247.59 377.427 247.546 377.669C247.502 377.911 247.53 378.161 247.627 378.388C247.724 378.614 247.885 378.808 248.09 378.943C248.296 379.079 248.536 379.152 248.783 379.152C248.958 379.163 249.133 379.136 249.297 379.073C249.461 379.01 249.61 378.913 249.733 378.789C249.857 378.664 249.952 378.515 250.014 378.35C250.075 378.186 250.1 378.01 250.088 377.835H250.041Z" fill="black"/>
<path d="M254.663 376.141L252.969 379.939C252.687 380.598 252.323 380.809 251.793 380.809C251.49 380.818 251.195 380.708 250.97 380.504L251.182 380.163C251.347 380.328 251.571 380.421 251.805 380.421C252.111 380.421 252.311 380.28 252.511 379.845L252.652 379.528L251.135 376.141H251.664L252.946 379.022L254.216 376.141H254.663Z" fill="black"/>
<path d="M259.555 377.494V379.587H259.12V379.058C258.995 379.252 258.819 379.407 258.612 379.507C258.404 379.606 258.173 379.646 257.944 379.623C257.179 379.623 256.768 379.223 256.768 378.635C256.768 378.047 257.097 377.671 258.073 377.671H259.143V377.471C259.143 376.894 258.826 376.577 258.191 376.577C257.763 376.561 257.344 376.703 257.015 376.977L256.803 376.636C257.198 376.325 257.689 376.162 258.191 376.177C258.373 376.146 258.56 376.158 258.736 376.212C258.912 376.267 259.074 376.362 259.206 376.49C259.339 376.618 259.44 376.776 259.501 376.951C259.561 377.125 259.58 377.311 259.555 377.494ZM259.096 378.576V378.012H258.038C257.379 378.012 257.168 378.27 257.168 378.623C257.168 378.976 257.485 379.258 258.026 379.258C258.261 379.268 258.492 379.2 258.685 379.067C258.878 378.933 259.022 378.74 259.096 378.517V378.576Z" fill="black"/>
<path d="M268.128 377.564V379.528H267.681V377.611C267.681 376.894 267.317 376.529 266.705 376.529C266.547 376.517 266.389 376.539 266.241 376.593C266.092 376.648 265.958 376.734 265.846 376.846C265.734 376.958 265.648 377.093 265.593 377.241C265.539 377.389 265.517 377.548 265.529 377.705V379.481H265.082V377.611C265.082 376.894 264.718 376.529 264.094 376.529C263.937 376.517 263.778 376.539 263.63 376.593C263.482 376.648 263.347 376.734 263.235 376.846C263.124 376.958 263.037 377.093 262.983 377.241C262.928 377.389 262.906 377.548 262.918 377.705V379.481H262.46V376.094H262.895V376.717C263.024 376.507 263.209 376.335 263.428 376.221C263.648 376.107 263.894 376.055 264.141 376.071C264.388 376.051 264.634 376.11 264.845 376.239C265.056 376.368 265.222 376.56 265.317 376.788C265.454 376.558 265.651 376.369 265.888 376.242C266.124 376.116 266.39 376.057 266.658 376.071C266.861 376.034 267.07 376.048 267.267 376.111C267.463 376.173 267.642 376.283 267.787 376.43C267.931 376.577 268.038 376.757 268.098 376.955C268.157 377.152 268.168 377.362 268.128 377.564Z" fill="black"/>
<path d="M272.291 377.975H269.457C269.481 378.308 269.635 378.618 269.886 378.838C270.137 379.058 270.464 379.17 270.797 379.151C270.991 379.158 271.184 379.123 271.363 379.048C271.542 378.973 271.702 378.86 271.832 378.716L272.091 379.01C271.926 379.19 271.724 379.333 271.499 379.428C271.273 379.524 271.03 379.569 270.786 379.563C270.553 379.578 270.319 379.543 270.1 379.463C269.881 379.382 269.681 379.256 269.514 379.093C269.346 378.93 269.215 378.734 269.128 378.517C269.042 378.3 269.001 378.067 269.01 377.834C269.01 377.397 269.183 376.978 269.492 376.67C269.801 376.361 270.22 376.188 270.656 376.188C271.093 376.188 271.512 376.361 271.821 376.67C272.129 376.978 272.303 377.397 272.303 377.834C272.303 377.834 272.291 377.928 272.291 377.975ZM269.457 377.634H271.868C271.868 377.314 271.741 377.008 271.515 376.782C271.289 376.556 270.982 376.429 270.662 376.429C270.343 376.429 270.036 376.556 269.81 376.782C269.584 377.008 269.457 377.314 269.457 377.634Z" fill="black"/>
<path d="M278.83 377.564V379.528H278.371V377.611C278.371 376.894 278.018 376.529 277.407 376.529C277.249 376.515 277.089 376.535 276.94 376.589C276.791 376.643 276.655 376.729 276.543 376.842C276.431 376.954 276.345 377.089 276.291 377.239C276.237 377.388 276.216 377.547 276.231 377.705V379.481H275.772V377.611C275.772 376.894 275.419 376.529 274.796 376.529C274.638 376.515 274.479 376.535 274.329 376.589C274.18 376.643 274.045 376.729 273.932 376.842C273.82 376.954 273.734 377.089 273.68 377.239C273.626 377.388 273.605 377.547 273.62 377.705V379.481H273.161V376.094H273.596V376.717C273.725 376.506 273.909 376.334 274.129 376.219C274.349 376.105 274.596 376.054 274.843 376.071C275.089 376.051 275.336 376.11 275.547 376.239C275.758 376.368 275.923 376.56 276.019 376.788C276.156 376.558 276.353 376.369 276.589 376.242C276.826 376.116 277.092 376.057 277.36 376.071C277.563 376.034 277.772 376.048 277.968 376.111C278.165 376.173 278.343 376.283 278.488 376.43C278.633 376.577 278.74 376.757 278.799 376.955C278.859 377.152 278.869 377.362 278.83 377.564Z" fill="black"/>
<path d="M283.51 377.835C283.521 378.061 283.486 378.287 283.406 378.499C283.326 378.711 283.204 378.904 283.046 379.066C282.888 379.228 282.698 379.356 282.489 379.442C282.28 379.527 282.055 379.569 281.828 379.564C281.567 379.575 281.308 379.515 281.078 379.391C280.848 379.267 280.657 379.083 280.523 378.858V379.528H280.076V374.754H280.535V376.788C280.675 376.575 280.868 376.402 281.094 376.285C281.321 376.167 281.573 376.11 281.828 376.118C282.054 376.111 282.279 376.151 282.488 376.236C282.698 376.32 282.887 376.447 283.045 376.608C283.203 376.769 283.326 376.962 283.406 377.173C283.486 377.384 283.522 377.61 283.51 377.835ZM283.051 377.835C283.04 377.589 282.956 377.352 282.811 377.153C282.666 376.954 282.466 376.802 282.235 376.715C282.005 376.629 281.754 376.612 281.514 376.667C281.273 376.722 281.055 376.846 280.885 377.025C280.714 377.203 280.6 377.427 280.556 377.669C280.512 377.911 280.54 378.161 280.637 378.388C280.734 378.614 280.895 378.808 281.1 378.943C281.306 379.079 281.547 379.152 281.793 379.152C281.964 379.156 282.135 379.124 282.293 379.058C282.451 378.992 282.594 378.894 282.712 378.771C282.831 378.647 282.922 378.5 282.98 378.338C283.039 378.177 283.063 378.006 283.051 377.835Z" fill="black"/>
<path d="M287.403 377.976H284.592C284.601 378.141 284.643 378.302 284.714 378.451C284.786 378.599 284.887 378.732 285.011 378.842C285.134 378.951 285.278 379.035 285.435 379.088C285.591 379.141 285.756 379.163 285.921 379.152C286.116 379.152 286.309 379.108 286.486 379.025C286.663 378.942 286.819 378.82 286.944 378.67L287.203 378.964C286.96 379.219 286.647 379.397 286.303 379.474C285.959 379.552 285.6 379.527 285.271 379.401C284.942 379.275 284.657 379.055 284.452 378.768C284.248 378.481 284.133 378.14 284.122 377.788C284.11 377.564 284.145 377.341 284.224 377.131C284.302 376.922 284.423 376.731 284.578 376.57C284.734 376.409 284.921 376.281 285.127 376.196C285.334 376.11 285.556 376.067 285.78 376.071C286.003 376.065 286.225 376.107 286.431 376.192C286.638 376.277 286.824 376.405 286.978 376.567C287.132 376.729 287.25 376.921 287.325 377.131C287.401 377.341 287.431 377.565 287.414 377.788L287.403 377.976ZM284.568 377.635H286.92C286.92 377.323 286.797 377.024 286.576 376.803C286.355 376.583 286.056 376.459 285.744 376.459C285.433 376.459 285.133 376.583 284.913 376.803C284.692 377.024 284.568 377.323 284.568 377.635Z" fill="black"/>
<path d="M290.049 376.12V376.566H289.943C289.779 376.552 289.613 376.575 289.459 376.634C289.305 376.693 289.167 376.786 289.054 376.906C288.94 377.025 288.856 377.169 288.806 377.326C288.757 377.484 288.743 377.65 288.767 377.813V379.542H288.308V376.155H288.743V376.813C288.863 376.577 289.052 376.384 289.286 376.259C289.52 376.135 289.786 376.086 290.049 376.12Z" fill="black"/>
<path d="M293.012 376.175C293.012 375.705 292.636 375.388 291.977 375.388C291.746 375.374 291.514 375.414 291.3 375.504C291.086 375.594 290.896 375.731 290.742 375.905L290.401 375.646C290.602 375.42 290.851 375.242 291.13 375.126C291.409 375.01 291.711 374.959 292.013 374.976C292.918 374.976 293.494 375.411 293.494 376.152C293.494 377.246 292.318 377.328 292.318 378.222H291.836C291.836 377.116 293.012 377.01 293.012 376.175ZM291.742 379.221C291.757 379.143 291.798 379.073 291.86 379.022C291.921 378.971 291.998 378.943 292.077 378.943C292.157 378.943 292.234 378.971 292.295 379.022C292.356 379.073 292.398 379.143 292.412 379.221C292.422 379.271 292.42 379.321 292.407 379.37C292.395 379.418 292.372 379.463 292.34 379.502C292.308 379.541 292.268 379.572 292.222 379.593C292.177 379.614 292.127 379.625 292.077 379.625C292.027 379.625 291.978 379.614 291.932 379.593C291.887 379.572 291.847 379.541 291.815 379.502C291.783 379.463 291.76 379.418 291.747 379.37C291.734 379.321 291.733 379.271 291.742 379.221Z" fill="black"/>
<path d="M296.199 375.023H297.246V378.669H299.504V379.516H296.199V375.023Z" fill="black"/>
<path d="M299.739 377.8C299.715 377.419 299.807 377.04 300.001 376.712C300.196 376.383 300.484 376.121 300.83 375.958C301.175 375.796 301.561 375.741 301.938 375.801C302.315 375.86 302.666 376.032 302.944 376.293C303.222 376.554 303.416 376.893 303.499 377.265C303.583 377.638 303.553 378.027 303.412 378.382C303.272 378.737 303.029 379.041 302.714 379.257C302.398 379.472 302.026 379.587 301.644 379.588C301.4 379.604 301.154 379.569 300.924 379.487C300.693 379.404 300.482 379.275 300.303 379.107C300.125 378.94 299.982 378.737 299.885 378.512C299.788 378.288 299.738 378.045 299.739 377.8ZM302.526 377.8C302.512 377.629 302.449 377.466 302.344 377.331C302.239 377.195 302.097 377.093 301.935 377.037C301.774 376.981 301.599 376.973 301.433 377.015C301.267 377.057 301.116 377.146 301 377.271C300.883 377.397 300.806 377.554 300.777 377.723C300.749 377.892 300.77 378.065 300.838 378.222C300.906 378.38 301.019 378.513 301.162 378.607C301.305 378.702 301.473 378.752 301.644 378.753C301.767 378.755 301.888 378.731 302.001 378.683C302.114 378.635 302.215 378.564 302.298 378.474C302.381 378.384 302.445 378.277 302.484 378.161C302.523 378.045 302.538 377.922 302.526 377.8Z" fill="black"/>
<path d="M307.794 376.061V378.954C307.827 379.214 307.798 379.478 307.711 379.725C307.624 379.972 307.481 380.195 307.293 380.378C307.105 380.56 306.877 380.696 306.627 380.776C306.378 380.855 306.113 380.875 305.854 380.835C305.249 380.859 304.652 380.69 304.149 380.353L304.549 379.636C304.892 379.881 305.302 380.017 305.725 380.024C306.43 380.024 306.748 379.706 306.748 379.083V378.93C306.607 379.077 306.437 379.191 306.248 379.266C306.059 379.341 305.857 379.375 305.654 379.365C305.422 379.385 305.189 379.356 304.969 379.28C304.749 379.205 304.547 379.085 304.375 378.927C304.204 378.77 304.067 378.578 303.974 378.365C303.88 378.152 303.832 377.922 303.832 377.69C303.832 377.457 303.88 377.227 303.974 377.014C304.067 376.801 304.204 376.609 304.375 376.452C304.547 376.294 304.749 376.174 304.969 376.099C305.189 376.023 305.422 375.994 305.654 376.014C305.875 375.996 306.098 376.032 306.302 376.118C306.507 376.203 306.688 376.337 306.83 376.508V376.061H307.794ZM306.807 377.695C306.81 377.578 306.789 377.46 306.744 377.351C306.699 377.242 306.632 377.144 306.547 377.063C306.461 376.982 306.359 376.92 306.248 376.881C306.137 376.842 306.019 376.827 305.901 376.837C305.781 376.823 305.659 376.834 305.543 376.871C305.427 376.907 305.321 376.967 305.23 377.048C305.14 377.129 305.067 377.227 305.018 377.338C304.968 377.448 304.942 377.568 304.942 377.69C304.942 377.811 304.968 377.931 305.018 378.041C305.067 378.152 305.14 378.25 305.23 378.331C305.321 378.412 305.427 378.472 305.543 378.508C305.659 378.545 305.781 378.556 305.901 378.542C306.018 378.552 306.135 378.537 306.245 378.499C306.356 378.461 306.457 378.4 306.542 378.32C306.627 378.24 306.695 378.143 306.741 378.036C306.786 377.928 306.809 377.812 306.807 377.695Z" fill="black"/>
<path d="M310.464 375.025C310.465 374.946 310.483 374.868 310.515 374.796C310.548 374.725 310.595 374.66 310.653 374.607C310.712 374.554 310.78 374.514 310.855 374.489C310.93 374.463 311.009 374.454 311.087 374.46C311.164 374.452 311.242 374.46 311.316 374.483C311.39 374.506 311.458 374.544 311.516 374.595C311.575 374.646 311.622 374.708 311.656 374.778C311.689 374.848 311.708 374.924 311.711 375.001C311.711 375.166 311.645 375.325 311.528 375.442C311.411 375.559 311.253 375.624 311.087 375.624C310.922 375.624 310.763 375.559 310.647 375.442C310.53 375.325 310.464 375.166 310.464 375.001V375.025ZM310.582 376.059H311.581V379.587H310.582V376.059Z" fill="black"/>
<path d="M316.038 377.492V379.48H315.039V377.657C315.039 377.093 314.78 376.834 314.333 376.834C313.886 376.834 313.498 377.128 313.498 377.763V379.48H312.498V375.952H313.463V376.363C313.614 376.207 313.798 376.085 314.001 376.006C314.204 375.927 314.421 375.892 314.639 375.905C314.842 375.895 315.045 375.93 315.232 376.009C315.42 376.088 315.587 376.209 315.721 376.361C315.856 376.514 315.954 376.695 316.009 376.891C316.064 377.086 316.074 377.292 316.038 377.492Z" fill="black"/>
</g>
<path d="M350.354 388.82H196.486V415.163H350.354V388.82Z" fill="#407BFF"/>
<path d="M253.546 406.082L251.664 403.366H251.099H248.865V406.106H247.571V397.086H251.099C253.451 397.086 254.851 398.262 254.851 400.238C254.881 400.863 254.703 401.481 254.346 401.996C253.989 402.51 253.472 402.893 252.875 403.084L255.016 406.106L253.546 406.082ZM253.546 400.202C253.546 398.909 252.687 398.18 251.029 398.18H248.842V402.237H251.029C252.652 402.249 253.51 401.496 253.51 400.214L253.546 400.202Z" fill="white"/>
<path d="M262.86 403.085H257.321C257.408 403.667 257.71 404.195 258.167 404.565C258.624 404.935 259.203 405.12 259.79 405.084C260.159 405.098 260.527 405.031 260.868 404.889C261.209 404.747 261.515 404.533 261.766 404.261L262.448 405.061C261.945 405.572 261.305 405.927 260.605 406.083C259.905 406.239 259.175 406.19 258.502 405.942C257.829 405.694 257.242 405.257 256.812 404.683C256.381 404.11 256.125 403.424 256.074 402.709C256.049 402.247 256.121 401.785 256.283 401.352C256.446 400.92 256.697 400.525 257.019 400.194C257.342 399.862 257.729 399.601 258.158 399.427C258.586 399.253 259.046 399.169 259.508 399.181C259.968 399.168 260.425 399.252 260.851 399.427C261.276 399.602 261.66 399.864 261.978 400.196C262.296 400.529 262.541 400.924 262.697 401.357C262.853 401.79 262.916 402.25 262.883 402.709C262.883 402.815 262.871 402.968 262.86 403.085ZM257.321 402.191H261.695C261.639 401.65 261.384 401.149 260.98 400.785C260.576 400.421 260.052 400.219 259.508 400.219C258.964 400.219 258.439 400.421 258.035 400.785C257.631 401.149 257.377 401.65 257.321 402.191Z" fill="white"/>
<path d="M271.139 399.263V405.143C271.139 407.554 269.904 408.671 267.611 408.671C266.44 408.722 265.289 408.364 264.353 407.66L264.941 406.707C265.694 407.292 266.623 407.603 267.575 407.589C269.186 407.589 269.927 406.849 269.927 405.296V404.755C269.623 405.104 269.244 405.381 268.819 405.564C268.393 405.747 267.932 405.833 267.469 405.814C266.593 405.814 265.752 405.466 265.133 404.846C264.513 404.226 264.165 403.386 264.165 402.509C264.165 401.633 264.513 400.792 265.133 400.172C265.752 399.553 266.593 399.205 267.469 399.205C267.953 399.19 268.434 399.289 268.873 399.493C269.312 399.697 269.697 400.001 269.998 400.381V399.322L271.139 399.263ZM269.963 402.497C269.988 402.028 269.873 401.561 269.631 401.157C269.388 400.754 269.031 400.432 268.604 400.234C268.177 400.036 267.701 399.971 267.236 400.047C266.772 400.122 266.341 400.335 265.999 400.659C265.657 400.982 265.419 401.4 265.318 401.859C265.216 402.319 265.254 402.798 265.428 403.236C265.602 403.673 265.902 404.048 266.291 404.313C266.68 404.577 267.14 404.719 267.611 404.72C267.911 404.738 268.213 404.693 268.496 404.589C268.779 404.485 269.037 404.324 269.255 404.115C269.472 403.906 269.644 403.655 269.76 403.376C269.876 403.098 269.933 402.799 269.927 402.497H269.963Z" fill="white"/>
<path d="M273.279 397.145C273.28 397.037 273.303 396.931 273.346 396.831C273.389 396.732 273.451 396.642 273.528 396.567C273.606 396.491 273.697 396.432 273.798 396.392C273.898 396.352 274.006 396.332 274.114 396.334C274.228 396.32 274.343 396.331 274.453 396.365C274.563 396.399 274.664 396.456 274.75 396.532C274.835 396.608 274.904 396.702 274.951 396.807C274.998 396.911 275.023 397.025 275.023 397.14C275.023 397.254 274.998 397.368 274.951 397.473C274.904 397.577 274.835 397.671 274.75 397.747C274.664 397.823 274.563 397.88 274.453 397.914C274.343 397.948 274.228 397.959 274.114 397.945C274.006 397.948 273.899 397.93 273.799 397.891C273.698 397.853 273.607 397.794 273.529 397.72C273.451 397.646 273.389 397.557 273.346 397.458C273.303 397.359 273.28 397.253 273.279 397.145ZM273.502 399.262H274.737V406.083H273.502V399.262Z" fill="white"/>
<path d="M276.231 405.366L276.748 404.39C277.449 404.845 278.265 405.09 279.1 405.096C280.276 405.096 280.723 404.743 280.723 404.166C280.723 402.638 276.407 403.967 276.407 401.238C276.407 400.062 277.501 399.192 279.253 399.192C280.12 399.178 280.976 399.393 281.734 399.815L281.205 400.791C280.618 400.422 279.935 400.234 279.241 400.25C278.159 400.25 277.63 400.65 277.63 401.191C277.63 402.802 281.958 401.485 281.958 404.143C281.958 405.319 280.782 406.166 279.006 406.166C278.022 406.18 277.056 405.902 276.231 405.366Z" fill="white"/>
<path d="M287.391 405.719C286.963 406.046 286.436 406.216 285.897 406.201C285.607 406.235 285.313 406.202 285.037 406.107C284.761 406.011 284.51 405.855 284.302 405.65C284.095 405.444 283.936 405.195 283.837 404.92C283.739 404.645 283.703 404.352 283.733 404.061V400.31H282.557V399.298H283.733V397.805H284.909V399.298H286.944V400.31H284.98V404.014C284.952 404.165 284.96 404.321 285.002 404.469C285.045 404.617 285.12 404.753 285.224 404.867C285.328 404.981 285.456 405.069 285.599 405.125C285.743 405.181 285.897 405.203 286.05 405.19C286.398 405.193 286.737 405.082 287.015 404.872L287.391 405.719Z" fill="white"/>
<path d="M294.8 403.085H289.296C289.383 403.669 289.687 404.199 290.147 404.569C290.606 404.939 291.188 405.123 291.777 405.084C292.145 405.098 292.511 405.032 292.85 404.89C293.189 404.747 293.493 404.533 293.741 404.261L294.423 405.061C293.922 405.573 293.282 405.929 292.583 406.086C291.883 406.243 291.153 406.194 290.48 405.946C289.808 405.697 289.222 405.259 288.792 404.685C288.363 404.11 288.109 403.424 288.061 402.709C288.037 402.247 288.108 401.785 288.271 401.352C288.433 400.919 288.684 400.525 289.006 400.194C289.329 399.862 289.716 399.601 290.145 399.427C290.573 399.253 291.033 399.169 291.495 399.181C291.954 399.17 292.411 399.255 292.836 399.43C293.26 399.606 293.644 399.868 293.961 400.2C294.279 400.532 294.524 400.927 294.68 401.359C294.837 401.791 294.901 402.25 294.87 402.709C294.858 402.836 294.834 402.962 294.8 403.085ZM289.296 402.191H293.682C293.615 401.658 293.354 401.167 292.951 400.811C292.547 400.455 292.027 400.259 291.489 400.259C290.951 400.259 290.431 400.455 290.028 400.811C289.624 401.167 289.364 401.658 289.296 402.191Z" fill="white"/>
<path d="M300.221 399.192V400.368H299.939C299.633 400.346 299.326 400.394 299.042 400.508C298.757 400.621 298.501 400.798 298.294 401.024C298.088 401.25 297.934 401.52 297.846 401.814C297.758 402.108 297.738 402.417 297.787 402.72V406.119H296.552V399.298H297.728V400.474C297.976 400.043 298.344 399.693 298.786 399.466C299.228 399.239 299.726 399.144 300.221 399.192Z" fill="white"/>
<g opacity="0.6">
<path d="M246.478 208.868L247.007 207.762C247.92 208.527 249.074 208.944 250.265 208.938C251.97 208.938 252.699 208.28 252.699 207.421C252.699 205.069 246.725 206.527 246.725 202.87C246.725 201.341 247.901 200.048 250.5 200.048C251.619 200.029 252.721 200.331 253.675 200.918L253.205 202.094C252.397 201.577 251.459 201.299 250.5 201.294C248.818 201.294 248.148 202 248.148 202.858C248.148 205.21 254.134 203.752 254.134 207.386C254.134 208.891 252.958 210.185 250.312 210.185C248.918 210.214 247.559 209.747 246.478 208.868Z" fill="#263238"/>
<path d="M255.709 200.199C255.711 200.081 255.736 199.964 255.783 199.855C255.83 199.747 255.898 199.648 255.984 199.566C256.069 199.484 256.17 199.42 256.28 199.377C256.391 199.334 256.508 199.314 256.627 199.317C256.743 199.312 256.86 199.331 256.97 199.372C257.079 199.412 257.18 199.475 257.265 199.554C257.35 199.634 257.419 199.73 257.467 199.837C257.515 199.944 257.541 200.059 257.544 200.176C257.544 200.419 257.447 200.652 257.275 200.824C257.103 200.996 256.87 201.093 256.627 201.093C256.383 201.093 256.15 200.996 255.978 200.824C255.806 200.652 255.709 200.419 255.709 200.176V200.199ZM255.945 202.551H257.309V210.03H255.945V202.551Z" fill="#263238"/>
<path d="M267.034 202.518V208.974C267.034 211.62 265.694 212.82 263.165 212.82C261.896 212.86 260.652 212.466 259.637 211.702L260.284 210.656C261.103 211.304 262.121 211.648 263.165 211.632C264.929 211.632 265.729 210.809 265.729 209.115V208.527C265.396 208.912 264.981 209.217 264.516 209.42C264.05 209.624 263.544 209.72 263.036 209.703C262.544 209.731 262.051 209.658 261.588 209.489C261.125 209.32 260.701 209.059 260.342 208.72C259.984 208.382 259.698 207.973 259.503 207.521C259.308 207.068 259.207 206.58 259.207 206.087C259.207 205.594 259.308 205.106 259.503 204.653C259.698 204.201 259.984 203.792 260.342 203.454C260.701 203.115 261.125 202.853 261.588 202.684C262.051 202.515 262.544 202.443 263.036 202.471C263.556 202.444 264.075 202.536 264.554 202.739C265.032 202.943 265.459 203.253 265.799 203.647V202.471L267.034 202.518ZM265.717 206.046C265.743 205.532 265.614 205.022 265.347 204.581C265.081 204.141 264.688 203.791 264.22 203.576C263.752 203.361 263.231 203.291 262.723 203.376C262.215 203.46 261.745 203.695 261.371 204.049C260.998 204.403 260.74 204.862 260.629 205.364C260.519 205.867 260.562 206.392 260.752 206.87C260.943 207.348 261.272 207.758 261.698 208.047C262.124 208.336 262.627 208.491 263.142 208.492C263.478 208.521 263.817 208.48 264.137 208.371C264.456 208.262 264.75 208.087 264.998 207.858C265.246 207.629 265.443 207.35 265.577 207.04C265.711 206.73 265.779 206.395 265.776 206.058L265.717 206.046Z" fill="#263238"/>
<path d="M276.724 205.691V209.995H275.36V205.797C275.36 204.327 274.631 203.609 273.349 203.609C273.024 203.588 272.697 203.639 272.393 203.758C272.09 203.877 271.816 204.061 271.591 204.298C271.367 204.535 271.197 204.818 271.094 205.128C270.992 205.438 270.959 205.767 270.997 206.091V209.948H269.645V202.469H270.95V203.645C271.271 203.246 271.684 202.931 272.153 202.726C272.622 202.522 273.133 202.433 273.643 202.469C274.068 202.44 274.493 202.505 274.889 202.659C275.286 202.813 275.643 203.052 275.937 203.359C276.231 203.667 276.454 204.035 276.59 204.438C276.726 204.84 276.772 205.268 276.724 205.691Z" fill="#263238"/>
<path d="M290.002 202.516V209.995H288.72V208.819C288.421 209.204 288.035 209.512 287.593 209.716C287.151 209.921 286.666 210.017 286.18 209.995C285.742 210.04 285.3 209.987 284.887 209.838C284.473 209.69 284.097 209.451 283.788 209.138C283.479 208.826 283.244 208.448 283.1 208.032C282.956 207.617 282.908 207.175 282.957 206.738V202.434H284.31V206.585C284.31 208.043 285.051 208.784 286.332 208.784C286.659 208.807 286.986 208.758 287.291 208.64C287.596 208.522 287.871 208.337 288.095 208.1C288.32 207.862 288.49 207.578 288.592 207.267C288.694 206.957 288.725 206.627 288.684 206.303V202.434L290.002 202.516Z" fill="#263238"/>
<path d="M300.327 206.255C300.353 206.76 300.274 207.265 300.095 207.737C299.915 208.21 299.639 208.64 299.283 209C298.928 209.359 298.502 209.641 298.031 209.826C297.561 210.012 297.057 210.097 296.552 210.077C296.055 210.096 295.561 210 295.108 209.796C294.655 209.592 294.256 209.286 293.941 208.901V212.758H292.589V202.551H293.882V203.727C294.193 203.317 294.598 202.989 295.063 202.77C295.528 202.551 296.038 202.447 296.552 202.468C297.054 202.446 297.556 202.53 298.025 202.712C298.493 202.895 298.919 203.173 299.274 203.53C299.629 203.886 299.906 204.312 300.087 204.781C300.269 205.251 300.35 205.752 300.327 206.255ZM298.963 206.255C298.94 205.763 298.773 205.289 298.483 204.891C298.194 204.494 297.794 204.189 297.333 204.016C296.872 203.844 296.371 203.809 295.891 203.919C295.411 204.028 294.974 204.275 294.633 204.63C294.292 204.985 294.063 205.432 293.974 205.916C293.885 206.4 293.939 206.9 294.131 207.353C294.323 207.806 294.643 208.193 295.052 208.466C295.462 208.739 295.942 208.886 296.434 208.889C296.777 208.896 297.118 208.832 297.435 208.701C297.752 208.57 298.039 208.374 298.276 208.127C298.514 207.879 298.698 207.585 298.816 207.263C298.934 206.941 298.984 206.597 298.963 206.255Z" fill="#263238"/>
</g>
<path d="M350.354 265.234H196.486V291.577H350.354V265.234Z" fill="white"/>
<g opacity="0.4">
<path d="M204.906 274.113H205.706V280.969H209.928V281.663H204.906V274.113Z" fill="#263238"/>
<path d="M215.396 278.147V281.675H214.667V280.793C214.453 281.108 214.16 281.361 213.817 281.526C213.475 281.691 213.094 281.763 212.715 281.734C211.433 281.734 210.645 281.064 210.645 280.076C210.645 279.088 211.198 278.477 212.833 278.477H214.632V278.136C214.632 277.159 214.079 276.63 213.021 276.63C212.333 276.621 211.666 276.859 211.139 277.301L210.786 276.724C211.458 276.204 212.289 275.934 213.138 275.96C213.437 275.924 213.741 275.955 214.026 276.051C214.312 276.147 214.572 276.306 214.789 276.515C215.005 276.725 215.172 276.98 215.277 277.263C215.382 277.545 215.423 277.847 215.396 278.147ZM214.632 279.958V279.029H212.856C211.751 279.029 211.398 279.464 211.398 280.052C211.398 280.64 211.927 281.111 212.833 281.111C213.216 281.134 213.597 281.035 213.92 280.828C214.244 280.621 214.493 280.316 214.632 279.958Z" fill="#263238"/>
<path d="M216.69 281.065L217.031 280.465C217.624 280.879 218.33 281.101 219.054 281.1C220.135 281.1 220.571 280.736 220.571 280.171C220.571 278.689 216.901 279.854 216.901 277.619C216.901 276.69 217.689 275.996 219.136 275.996C219.842 275.987 220.537 276.17 221.147 276.526L220.806 277.137C220.311 276.81 219.729 276.642 219.136 276.655C218.113 276.655 217.666 277.055 217.666 277.596C217.666 279.125 221.335 277.972 221.335 280.148C221.335 281.136 220.476 281.771 218.983 281.771C218.163 281.788 217.358 281.541 216.69 281.065Z" fill="#263238"/>
<path d="M225.792 281.324C225.458 281.589 225.042 281.73 224.616 281.724C224.392 281.748 224.166 281.722 223.954 281.647C223.742 281.572 223.549 281.451 223.39 281.291C223.231 281.132 223.11 280.94 223.035 280.728C222.96 280.515 222.934 280.289 222.958 280.066V276.643H221.935V275.997H222.958V274.75H223.722V275.997H225.439V276.643H223.722V280.03C223.702 280.166 223.713 280.304 223.754 280.435C223.795 280.565 223.865 280.685 223.959 280.784C224.053 280.884 224.168 280.961 224.296 281.01C224.425 281.058 224.562 281.077 224.698 281.065C225.007 281.074 225.308 280.97 225.545 280.771L225.792 281.324Z" fill="#263238"/>
<path d="M236.376 274.113V281.663H235.717L230.872 275.536V281.663H230.073V274.113H230.731L235.588 280.24V274.113H236.376Z" fill="#263238"/>
<path d="M243.009 278.146V281.674H242.256V280.792C242.044 281.108 241.751 281.362 241.408 281.528C241.065 281.693 240.683 281.764 240.304 281.733C239.022 281.733 238.234 281.062 238.234 280.075C238.234 279.087 238.799 278.475 240.433 278.475H242.256V278.134C242.256 277.158 241.703 276.629 240.645 276.629C239.958 276.62 239.29 276.858 238.763 277.299L238.41 276.723C239.081 276.2 239.913 275.93 240.762 275.959C241.061 275.924 241.363 275.957 241.647 276.054C241.931 276.151 242.19 276.309 242.405 276.519C242.62 276.728 242.786 276.983 242.89 277.264C242.995 277.546 243.035 277.847 243.009 278.146ZM242.244 279.957V279.028H240.457C239.363 279.028 239.01 279.463 239.01 280.051C239.01 280.639 239.539 281.109 240.445 281.109C240.83 281.136 241.214 281.038 241.54 280.83C241.865 280.623 242.116 280.317 242.256 279.957H242.244Z" fill="#263238"/>
<path d="M254.451 278.37V281.663H253.687V278.453C253.687 277.277 253.075 276.642 252.052 276.642C251.787 276.629 251.522 276.675 251.276 276.776C251.031 276.876 250.81 277.029 250.63 277.224C250.449 277.419 250.314 277.651 250.232 277.904C250.151 278.157 250.126 278.424 250.159 278.688V281.663H249.394V278.453C249.394 277.277 248.783 276.642 247.748 276.642C247.483 276.629 247.218 276.675 246.972 276.776C246.727 276.876 246.506 277.029 246.325 277.224C246.145 277.419 246.01 277.651 245.928 277.904C245.847 278.157 245.822 278.424 245.855 278.688V281.663H245.09V275.995H245.784V277.03C246.006 276.683 246.315 276.4 246.68 276.211C247.046 276.021 247.454 275.93 247.866 275.948C248.282 275.913 248.7 276.008 249.062 276.218C249.423 276.428 249.712 276.744 249.888 277.124C250.12 276.745 250.451 276.435 250.844 276.229C251.237 276.022 251.679 275.925 252.123 275.948C252.444 275.916 252.769 275.958 253.073 276.07C253.376 276.182 253.65 276.362 253.874 276.595C254.098 276.828 254.266 277.109 254.366 277.416C254.466 277.724 254.495 278.05 254.451 278.37Z" fill="#263238"/>
<path d="M261.495 279.066H256.791C256.808 279.343 256.879 279.613 257 279.863C257.121 280.112 257.291 280.334 257.498 280.518C257.706 280.702 257.948 280.842 258.21 280.932C258.472 281.022 258.749 281.059 259.026 281.042C259.352 281.052 259.677 280.991 259.978 280.864C260.278 280.736 260.547 280.544 260.766 280.301L261.19 280.795C260.782 281.22 260.258 281.517 259.683 281.646C259.109 281.776 258.508 281.733 257.958 281.524C257.407 281.314 256.93 280.947 256.587 280.468C256.243 279.989 256.049 279.42 256.027 278.831C256.008 278.456 256.065 278.082 256.197 277.731C256.328 277.379 256.53 277.059 256.79 276.789C257.05 276.519 257.363 276.305 257.709 276.16C258.055 276.016 258.427 275.944 258.802 275.95C259.177 275.942 259.549 276.013 259.895 276.157C260.24 276.301 260.552 276.515 260.811 276.786C261.07 277.057 261.269 277.378 261.397 277.73C261.525 278.082 261.579 278.457 261.554 278.831C261.507 278.902 261.495 278.984 261.495 279.066ZM256.791 278.502H260.813C260.813 277.968 260.601 277.457 260.224 277.08C259.847 276.703 259.336 276.491 258.802 276.491C258.269 276.491 257.757 276.703 257.38 277.08C257.003 277.457 256.791 277.968 256.791 278.502Z" fill="#263238"/>
</g>
<path d="M350.354 229.246H196.486V255.588H350.354V229.246Z" fill="white"/>
<g opacity="0.4">
<path d="M205.706 238.819V241.782H209.61V242.476H205.706V245.675H204.906V238.125H210.081V238.819H205.706Z" fill="#263238"/>
<path d="M211.292 238.209C211.29 238.096 211.321 237.986 211.382 237.891C211.443 237.796 211.531 237.722 211.635 237.678C211.739 237.634 211.853 237.622 211.964 237.643C212.074 237.665 212.176 237.719 212.255 237.798C212.335 237.878 212.389 237.979 212.41 238.09C212.432 238.201 212.42 238.315 212.376 238.419C212.331 238.522 212.257 238.61 212.163 238.671C212.068 238.733 211.957 238.764 211.845 238.762C211.698 238.762 211.557 238.703 211.454 238.6C211.35 238.496 211.292 238.356 211.292 238.209ZM211.457 240.008H212.221V245.677H211.457V240.008Z" fill="#263238"/>
<path d="M217.219 239.962V240.703H217.031C216.761 240.69 216.491 240.737 216.241 240.84C215.991 240.943 215.767 241.1 215.585 241.301C215.403 241.501 215.267 241.738 215.188 241.997C215.108 242.256 215.087 242.528 215.126 242.796V245.689H214.361V240.021H215.09V241.079C215.294 240.702 215.605 240.395 215.984 240.196C216.363 239.997 216.793 239.915 217.219 239.962Z" fill="#263238"/>
<path d="M217.854 245.03L218.195 244.419C218.783 244.845 219.492 245.072 220.218 245.066C221.3 245.066 221.735 244.689 221.735 244.137C221.735 242.655 218.066 243.819 218.066 241.573C218.066 240.656 218.854 239.962 220.3 239.962C221.007 239.946 221.703 240.13 222.311 240.491L221.97 241.103C221.475 240.776 220.893 240.608 220.3 240.62C219.277 240.62 218.83 241.02 218.83 241.561C218.83 243.09 222.499 241.938 222.499 244.113C222.499 245.089 221.641 245.724 220.147 245.724C219.328 245.746 218.524 245.502 217.854 245.03Z" fill="#263238"/>
<path d="M226.968 245.336C226.63 245.592 226.216 245.729 225.792 245.724C225.569 245.75 225.343 245.725 225.131 245.652C224.918 245.579 224.725 245.458 224.566 245.3C224.407 245.142 224.285 244.95 224.21 244.738C224.135 244.526 224.109 244.301 224.134 244.077V240.655H223.111V240.008H224.134V238.727H224.898V239.973H226.615V240.62H224.898V243.995C224.878 244.131 224.89 244.27 224.931 244.401C224.972 244.532 225.041 244.652 225.135 244.753C225.229 244.853 225.344 244.931 225.472 244.981C225.6 245.031 225.737 245.052 225.874 245.042C226.182 245.046 226.482 244.942 226.721 244.748L226.968 245.336Z" fill="#263238"/>
<path d="M237.552 238.125V245.675H236.893L232.048 239.548V245.675H231.249V238.125H231.907L236.764 244.252V238.125H237.552Z" fill="#263238"/>
<path d="M244.173 242.162V245.69H243.432V244.808C243.221 245.122 242.93 245.374 242.589 245.537C242.247 245.701 241.869 245.77 241.492 245.737C240.198 245.737 239.41 245.078 239.41 244.09C239.41 243.103 239.975 242.491 241.609 242.491H243.432V242.138C243.432 241.174 242.879 240.645 241.821 240.645C241.134 240.636 240.466 240.873 239.939 241.315L239.586 240.739C240.257 240.217 241.089 239.946 241.938 239.974C242.236 239.94 242.538 239.972 242.822 240.069C243.105 240.166 243.363 240.325 243.578 240.535C243.792 240.745 243.956 240.999 244.059 241.281C244.162 241.562 244.201 241.863 244.173 242.162ZM243.408 243.973V243.044H241.621C240.527 243.044 240.174 243.479 240.174 244.055C240.174 244.631 240.704 245.125 241.609 245.125C241.996 245.152 242.382 245.055 242.709 244.848C243.037 244.64 243.29 244.334 243.432 243.973H243.408Z" fill="#263238"/>
<path d="M255.615 242.384V245.677H254.851V242.466C254.851 241.29 254.239 240.655 253.216 240.655C252.951 240.643 252.686 240.689 252.441 240.79C252.195 240.89 251.974 241.043 251.794 241.238C251.614 241.433 251.478 241.665 251.397 241.918C251.315 242.171 251.29 242.438 251.323 242.702V245.677H250.559V242.466C250.559 241.29 249.947 240.655 248.912 240.655C248.647 240.643 248.382 240.689 248.136 240.79C247.891 240.89 247.67 241.043 247.49 241.238C247.309 241.433 247.174 241.665 247.092 241.918C247.011 242.171 246.986 242.438 247.019 242.702V245.677H246.254V240.009H246.96V241.079C247.182 240.732 247.491 240.45 247.856 240.26C248.222 240.07 248.63 239.979 249.042 239.997C249.458 239.963 249.876 240.057 250.238 240.267C250.599 240.478 250.888 240.794 251.064 241.173C251.295 240.792 251.624 240.482 252.018 240.274C252.412 240.067 252.854 239.971 253.299 239.997C253.616 239.968 253.936 240.011 254.235 240.122C254.534 240.233 254.804 240.409 255.026 240.638C255.248 240.867 255.416 241.142 255.518 241.444C255.62 241.747 255.653 242.068 255.615 242.384Z" fill="#263238"/>
<path d="M262.66 243.078H257.956C257.972 243.354 258.043 243.625 258.164 243.874C258.286 244.123 258.455 244.346 258.663 244.53C258.87 244.713 259.112 244.854 259.374 244.944C259.636 245.034 259.913 245.071 260.19 245.054C260.518 245.064 260.844 245.002 261.145 244.872C261.445 244.742 261.714 244.547 261.93 244.301L262.354 244.807C261.946 245.232 261.422 245.528 260.848 245.658C260.273 245.787 259.672 245.745 259.122 245.535C258.571 245.326 258.094 244.959 257.751 244.48C257.408 244.001 257.213 243.432 257.191 242.843C257.172 242.468 257.23 242.094 257.361 241.742C257.492 241.391 257.694 241.07 257.954 240.8C258.214 240.53 258.527 240.316 258.873 240.172C259.22 240.028 259.592 239.956 259.967 239.961C260.341 239.954 260.713 240.025 261.059 240.169C261.405 240.313 261.717 240.527 261.975 240.798C262.234 241.068 262.434 241.39 262.562 241.742C262.69 242.094 262.743 242.469 262.718 242.843C262.671 242.901 262.66 242.984 262.66 243.078ZM257.956 242.502H261.978C261.978 241.968 261.766 241.457 261.389 241.08C261.011 240.703 260.5 240.491 259.967 240.491C259.433 240.491 258.922 240.703 258.545 241.08C258.167 241.457 257.956 241.968 257.956 242.502Z" fill="#263238"/>
</g>
<path d="M138.592 453.09H137.474C137.474 451.432 138.85 412.577 145.612 406.05C152.563 399.288 160.736 405.956 160.806 406.05L160.101 406.897C159.795 406.65 152.61 400.817 146.377 406.897C139.944 413.023 138.603 452.69 138.592 453.09Z" fill="#407BFF"/>
<path d="M138.027 460.885L136.922 460.779C136.922 460.309 141.296 413.598 124.374 394.171L125.209 393.441C142.449 413.233 138.074 460.415 138.027 460.885Z" fill="#407BFF"/>
<path d="M138.568 455.9C138.427 453.689 135.169 401.804 148.176 389.809L148.929 390.632C136.31 402.227 139.638 455.312 139.674 455.817L138.568 455.9Z" fill="#407BFF"/>
<path d="M136.922 455.866C136.922 455.513 136.522 420.586 127.267 415.329C126.48 414.81 125.58 414.488 124.643 414.39C123.705 414.292 122.758 414.42 121.881 414.764C116.459 417.011 113.578 427.359 113.543 427.465L112.473 427.171C112.59 426.724 115.53 416.199 121.457 413.741C122.49 413.327 123.607 413.167 124.715 413.275C125.822 413.384 126.887 413.757 127.819 414.365C137.616 419.974 138.027 454.349 138.039 455.854L136.922 455.866Z" fill="#407BFF"/>
<path d="M140.732 455.887C140.661 454.711 139.238 428.322 146.73 418.525C148.729 415.927 150.94 414.692 153.339 414.868C158.666 415.233 162.747 422.453 162.97 422.759L162.006 423.312C162.006 423.241 157.984 416.256 153.256 415.974C151.269 415.821 149.364 416.914 147.612 419.208C140.367 428.616 141.826 455.558 141.837 455.828L140.732 455.887Z" fill="#407BFF"/>
<path d="M139.238 459.544L138.133 459.462C138.133 458.827 142.837 395.817 135.075 385.303L135.969 384.645C143.989 395.487 139.438 456.933 139.238 459.544Z" fill="#407BFF"/>
<path d="M119.305 420.007C119.305 420.007 124.103 421.783 122.68 425.958C121.257 430.133 106.063 437.012 106.063 437.012C106.063 437.012 99.7013 431.191 105.546 421.724C111.391 412.257 119.176 417.02 119.305 420.007Z" fill="#407BFF"/>
<path opacity="0.2" d="M119.305 420.007C119.305 420.007 124.103 421.783 122.68 425.958C121.257 430.133 106.063 437.012 106.063 437.012C106.063 437.012 99.7013 431.191 105.546 421.724C111.391 412.257 119.176 417.02 119.305 420.007Z" fill="black"/>
<path d="M140.179 412.057C140.179 412.057 135.064 411.845 134.77 416.244C134.476 420.642 145.824 432.849 145.824 432.849C145.824 432.849 153.938 429.909 152.198 418.913C150.457 407.918 141.449 409.341 140.179 412.057Z" fill="#407BFF"/>
<path opacity="0.2" d="M140.179 412.057C140.179 412.057 135.064 411.845 134.77 416.244C134.476 420.642 145.824 432.849 145.824 432.849C145.824 432.849 153.938 429.909 152.198 418.913C150.457 407.918 141.449 409.341 140.179 412.057Z" fill="black"/>
<path d="M144.507 390.959C144.507 390.959 141.096 390.594 141.367 388.525C141.637 386.455 154.62 381.104 162.276 389.701C162.276 389.701 157.372 398.121 150.293 398.238C143.213 398.356 144.507 390.959 144.507 390.959Z" fill="#407BFF"/>
<path opacity="0.2" d="M144.507 390.959C144.507 390.959 141.096 390.594 141.367 388.525C141.637 386.455 154.62 381.104 162.276 389.701C162.276 389.701 157.372 398.121 150.293 398.238C143.213 398.356 144.507 390.959 144.507 390.959Z" fill="black"/>
<path d="M138.156 385.915C138.156 385.915 141.238 387.409 142.108 385.504C142.978 383.599 134.781 372.203 123.715 375.484C123.715 375.484 123.421 385.221 129.372 389.067C135.322 392.912 138.156 385.915 138.156 385.915Z" fill="#407BFF"/>
<path opacity="0.2" d="M138.156 385.915C138.156 385.915 141.238 387.409 142.108 385.504C142.978 383.599 134.781 372.203 123.715 375.484C123.715 375.484 123.421 385.221 129.372 389.067C135.322 392.912 138.156 385.915 138.156 385.915Z" fill="black"/>
<path d="M154.291 418.337C154.291 418.337 151.939 416.431 154.479 415.502C157.02 414.573 169.473 414.844 169.603 427.18C169.603 427.18 155.091 429.591 153.303 424.887C151.516 420.183 154.291 418.337 154.291 418.337Z" fill="#407BFF"/>
<path opacity="0.2" d="M154.291 418.337C154.291 418.337 151.939 416.431 154.479 415.502C157.02 414.573 169.473 414.844 169.603 427.18C169.603 427.18 155.091 429.591 153.303 424.887C151.516 420.183 154.291 418.337 154.291 418.337Z" fill="black"/>
<path d="M124.656 390.654C124.656 390.654 127.008 388.748 124.468 387.831C121.928 386.914 109.474 387.161 109.344 399.497C109.344 399.497 123.856 401.92 125.644 397.216C127.431 392.512 124.656 390.654 124.656 390.654Z" fill="#407BFF"/>
<path opacity="0.2" d="M124.656 390.654C124.656 390.654 127.008 388.748 124.468 387.831C121.928 386.914 109.474 387.161 109.344 399.497C109.344 399.497 123.856 401.92 125.644 397.216C127.431 392.512 124.656 390.654 124.656 390.654Z" fill="black"/>
<path d="M132.371 400.591C132.371 400.591 132.582 398.239 130.712 399.192C128.843 400.145 122.363 407.106 129.09 413.751C129.09 413.751 138.156 407.036 136.522 403.543C134.887 400.05 132.371 400.591 132.371 400.591Z" fill="#407BFF"/>
<path opacity="0.2" d="M132.371 400.591C132.371 400.591 132.582 398.239 130.712 399.192C128.843 400.145 122.363 407.106 129.09 413.751C129.09 413.751 138.156 407.036 136.522 403.543C134.887 400.05 132.371 400.591 132.371 400.591Z" fill="black"/>
<path d="M156.408 403.884C156.408 403.884 154.997 402.038 157.067 401.814C159.136 401.591 168.356 404.049 166.204 413.269C166.204 413.269 154.962 412.422 154.444 408.565C153.927 404.707 156.408 403.884 156.408 403.884Z" fill="#407BFF"/>
<path opacity="0.2" d="M156.408 403.884C156.408 403.884 154.997 402.038 157.067 401.814C159.136 401.591 168.356 404.049 166.204 413.269C166.204 413.269 154.962 412.422 154.444 408.565C153.927 404.707 156.408 403.884 156.408 403.884Z" fill="black"/>
<path d="M120.14 490.061H156.49L161.324 454.711H115.307L120.14 490.061Z" fill="#263238"/>
<path opacity="0.2" d="M120.14 490.061H156.49L161.324 454.711H115.307L120.14 490.061Z" fill="white"/>
<path d="M165.887 451.844V455.207C165.887 456.286 165.458 457.321 164.695 458.084C163.932 458.847 162.897 459.276 161.818 459.276H114.366C113.287 459.276 112.252 458.847 111.489 458.084C110.726 457.321 110.297 456.286 110.297 455.207V451.844H165.887Z" fill="#263238"/>
<path d="M468.777 116.789H434.991C432.233 116.789 429.589 117.885 427.64 119.834C425.69 121.784 424.595 124.428 424.595 127.185V156.585C424.593 157.951 424.861 159.304 425.383 160.567C425.904 161.83 426.67 162.977 427.635 163.944C428.601 164.91 429.747 165.677 431.01 166.2C432.272 166.723 433.624 166.993 434.991 166.993H444.857L442.505 176.271L451.913 166.993H468.836C471.596 166.993 474.243 165.896 476.195 163.944C478.147 161.993 479.243 159.345 479.243 156.585V127.185C479.243 125.814 478.972 124.456 478.445 123.19C477.919 121.925 477.147 120.775 476.174 119.809C475.201 118.843 474.047 118.079 472.777 117.56C471.508 117.042 470.148 116.78 468.777 116.789Z" fill="#407BFF"/>
<path opacity="0.7" d="M468.777 116.789H434.991C432.233 116.789 429.589 117.885 427.64 119.834C425.69 121.784 424.595 124.428 424.595 127.185V156.585C424.593 157.951 424.861 159.304 425.383 160.567C425.904 161.83 426.67 162.977 427.635 163.944C428.601 164.91 429.747 165.677 431.01 166.2C432.272 166.723 433.624 166.993 434.991 166.993H444.857L442.505 176.271L451.913 166.993H468.836C471.596 166.993 474.243 165.896 476.195 163.944C478.147 161.993 479.243 159.345 479.243 156.585V127.185C479.243 125.814 478.972 124.456 478.445 123.19C477.919 121.925 477.147 120.775 476.174 119.809C475.201 118.843 474.047 118.079 472.777 117.56C471.508 117.042 470.148 116.78 468.777 116.789Z" fill="white"/>
<path d="M451.89 154.881C459.131 154.881 465.002 149.01 465.002 141.769C465.002 134.527 459.131 128.656 451.89 128.656C444.648 128.656 438.777 134.527 438.777 141.769C438.777 149.01 444.648 154.881 451.89 154.881Z" fill="white"/>
<path d="M451.89 124.996C448.573 124.996 445.331 125.98 442.573 127.822C439.815 129.665 437.666 132.284 436.396 135.348C435.127 138.413 434.795 141.784 435.442 145.037C436.089 148.29 437.686 151.279 440.032 153.624C442.377 155.969 445.365 157.566 448.618 158.213C451.871 158.86 455.243 158.528 458.307 157.259C461.372 155.99 463.991 153.84 465.833 151.083C467.676 148.325 468.659 145.083 468.659 141.766C468.661 139.563 468.228 137.382 467.386 135.347C466.544 133.311 465.309 131.462 463.751 129.904C462.194 128.347 460.344 127.112 458.309 126.269C456.274 125.427 454.092 124.995 451.89 124.996ZM461.404 136.756L451.302 148.657C451.158 148.829 450.978 148.967 450.775 149.061C450.571 149.154 450.35 149.201 450.126 149.198C449.902 149.2 449.681 149.152 449.478 149.058C449.274 148.965 449.094 148.828 448.95 148.657L442.376 140.907C442.237 140.754 442.13 140.575 442.062 140.379C441.994 140.184 441.966 139.977 441.98 139.77C441.994 139.564 442.049 139.363 442.142 139.178C442.236 138.993 442.365 138.83 442.523 138.696C442.681 138.563 442.864 138.462 443.062 138.401C443.259 138.34 443.467 138.319 443.673 138.34C443.879 138.361 444.078 138.423 444.259 138.523C444.441 138.622 444.6 138.757 444.728 138.92L450.126 145.282L459.052 134.769C459.32 134.473 459.692 134.293 460.091 134.266C460.489 134.24 460.882 134.369 461.187 134.627C461.492 134.884 461.685 135.25 461.726 135.648C461.766 136.045 461.651 136.442 461.404 136.756Z" fill="#407BFF"/>
<path d="M462.921 298.189C462.921 298.189 442.447 295.602 411.424 304.069C411.424 304.069 406.437 248.632 407.025 241.012C407.613 233.391 454.924 235.626 454.924 235.626C454.924 235.626 456.1 257.817 459.181 271.2C462.262 284.583 464.52 295.613 462.921 298.189Z" fill="#407BFF"/>
<path opacity="0.2" d="M462.921 298.189C462.921 298.189 442.447 295.602 411.424 304.069C411.424 304.069 406.437 248.632 407.025 241.012C407.613 233.391 454.924 235.626 454.924 235.626C454.924 235.626 456.1 257.817 459.181 271.2C462.262 284.583 464.52 295.613 462.921 298.189Z" fill="black"/>
<path d="M396.465 481.714L404.815 484.078L406.802 471.083L407.872 464.133L399.523 461.77L398.1 471.083L396.465 481.714Z" fill="#E4897B"/>
<path d="M444.469 482.395L453.078 483.536L453.16 471.082L453.219 463.344L444.599 462.215L444.54 471.082L444.469 482.395Z" fill="#E4897B"/>
<path opacity="0.2" d="M444.599 462.215L444.54 471.082H453.16L453.219 463.344L444.599 462.215Z" fill="black"/>
<path opacity="0.2" d="M398.1 471.083H406.802L407.872 464.133L399.523 461.77L398.1 471.083Z" fill="black"/>
<path d="M359.397 245.563L351.107 243.117L352.624 252.584C352.624 252.584 360.15 254.313 360.856 250.397L359.397 245.563Z" fill="#E4897B"/>
<path d="M342.828 245.316L346.897 253.007L352.624 252.584L351.107 243.117L342.828 245.316Z" fill="#E4897B"/>
<path d="M370.84 247.983L357.222 244.938L355.987 251.547L368.347 254.557L370.84 247.983Z" fill="#E4897B"/>
<path d="M412.035 242.009L411.235 242.961C409.519 244.972 405.355 249.829 401.016 254.016C397.488 257.426 393.96 260.402 391.608 261.001C384.94 262.718 360.703 255.58 360.703 255.58L363.208 245.749C363.208 245.749 385.787 248.747 387.539 248.747C388.868 248.747 402.604 228.849 405.932 227.215L412.035 242.009Z" fill="#407BFF"/>
<path opacity="0.2" d="M411.235 242.963C409.519 244.974 405.355 249.831 401.016 254.017C401.886 247.126 404.415 240.799 407.743 236.801C408.053 236.415 408.408 236.067 408.801 235.766L411.235 242.963Z" fill="black"/>
<path d="M396.571 480.408L406.049 480.161C406.22 480.155 406.388 480.208 406.525 480.311C406.661 480.413 406.759 480.559 406.802 480.725L408.801 488.357C408.849 488.54 408.855 488.731 408.819 488.916C408.783 489.102 408.705 489.277 408.592 489.428C408.479 489.579 408.334 489.703 408.166 489.791C407.999 489.878 407.814 489.927 407.625 489.933C404.203 489.933 399.252 489.933 394.96 490.015C389.926 490.157 386.728 489.91 380.848 490.015C377.32 490.109 376.144 486.558 377.649 486.193C384.387 484.523 388.797 484.853 394.536 481.09C395.142 480.686 395.844 480.45 396.571 480.408Z" fill="#263238"/>
<path d="M395.748 481.632C394.36 481.938 391.89 482.349 390.902 481.538C390.758 481.419 390.645 481.267 390.571 481.095C390.498 480.923 390.466 480.736 390.479 480.55C390.479 480.438 390.508 480.328 390.563 480.231C390.619 480.134 390.7 480.053 390.797 479.997C391.843 479.374 395.383 481.056 395.795 481.244C395.831 481.263 395.861 481.292 395.881 481.327C395.902 481.363 395.913 481.403 395.912 481.444C395.91 481.489 395.893 481.532 395.863 481.567C395.833 481.601 395.792 481.624 395.748 481.632ZM391.044 480.326H390.973C390.934 480.349 390.901 480.382 390.878 480.421C390.856 480.46 390.844 480.505 390.844 480.55C390.834 480.672 390.853 480.794 390.9 480.906C390.947 481.019 391.021 481.118 391.114 481.197C391.667 481.655 393.102 481.702 395.007 481.326C393.631 480.75 391.714 480.08 391.067 480.326H391.044Z" fill="#407BFF"/>
<path d="M395.748 481.632H395.606C394.536 481.185 392.396 479.374 392.514 478.398C392.514 478.163 392.702 477.869 393.266 477.799C393.473 477.771 393.684 477.786 393.886 477.84C394.088 477.895 394.277 477.988 394.442 478.116C395.618 478.998 395.889 481.315 395.912 481.409C395.916 481.445 395.91 481.481 395.895 481.514C395.881 481.547 395.858 481.575 395.83 481.597L395.748 481.632ZM393.113 478.257C392.937 478.316 392.925 478.41 392.925 478.445C392.855 479.033 394.313 480.468 395.406 481.08C395.28 480.092 394.844 479.169 394.16 478.445C394.044 478.348 393.908 478.276 393.762 478.236C393.616 478.195 393.463 478.186 393.313 478.21C393.245 478.216 393.177 478.232 393.113 478.257Z" fill="#407BFF"/>
<path d="M444.81 480.408L454.289 480.161C454.461 480.155 454.631 480.207 454.769 480.31C454.908 480.412 455.008 480.559 455.053 480.725L457.041 488.357C457.091 488.54 457.099 488.732 457.063 488.918C457.028 489.105 456.951 489.281 456.837 489.432C456.724 489.584 456.578 489.708 456.409 489.795C456.24 489.882 456.054 489.929 455.865 489.933C452.443 489.933 447.492 489.933 443.187 490.016C438.166 490.157 434.955 489.91 429.075 490.016C425.547 490.11 424.371 486.558 425.877 486.194C432.615 484.524 437.013 484.853 442.752 481.09C443.365 480.682 444.076 480.446 444.81 480.408Z" fill="#263238"/>
<path d="M443.999 481.632C442.611 481.938 440.13 482.349 439.154 481.538C439.01 481.419 438.896 481.267 438.823 481.095C438.749 480.923 438.717 480.736 438.73 480.55C438.73 480.438 438.759 480.328 438.815 480.231C438.871 480.134 438.951 480.053 439.048 479.997C440.083 479.374 443.634 481.056 444.034 481.244C444.073 481.259 444.106 481.287 444.127 481.323C444.149 481.36 444.157 481.402 444.152 481.444C444.149 481.487 444.132 481.528 444.105 481.562C444.078 481.595 444.041 481.62 443.999 481.632ZM439.295 480.326H439.224C439.185 480.349 439.154 480.382 439.133 480.421C439.112 480.461 439.103 480.505 439.107 480.55C439.095 480.672 439.113 480.794 439.161 480.907C439.208 481.02 439.282 481.12 439.377 481.197C439.93 481.655 441.353 481.702 443.27 481.326C441.87 480.75 439.953 480.08 439.307 480.326H439.295Z" fill="#407BFF"/>
<path d="M443.999 481.633H443.846C442.788 481.187 440.635 479.375 440.765 478.399C440.765 478.164 440.941 477.87 441.506 477.8C441.713 477.771 441.924 477.785 442.126 477.839C442.328 477.894 442.517 477.988 442.682 478.117C443.505 479.034 444.019 480.185 444.152 481.41C444.158 481.446 444.153 481.483 444.139 481.516C444.124 481.55 444.1 481.578 444.069 481.598L443.999 481.633ZM441.353 478.258C441.188 478.317 441.176 478.411 441.176 478.446C441.094 479.034 442.564 480.469 443.658 481.081C443.523 480.095 443.088 479.175 442.411 478.446C442.295 478.35 442.159 478.278 442.013 478.238C441.867 478.197 441.714 478.188 441.565 478.211L441.353 478.258Z" fill="#407BFF"/>
<path d="M462.227 293.133C466.79 312.901 458.958 468.427 458.958 468.427H443.834L437.366 338.82L413.552 468.427L397.382 467.251C407.966 366.845 417.292 306.904 417.292 306.904V299.33L462.227 293.133Z" fill="#263238"/>
<path opacity="0.4" d="M397.382 467.251L413.552 468.427L432.298 366.398L437.366 338.82L443.834 468.427H458.958C458.958 468.427 466.79 312.901 462.227 293.133L417.268 299.33V306.904C417.268 306.904 407.954 366.845 397.382 467.251Z" fill="white"/>
<path d="M454.077 219.911C453.614 229.363 453.853 238.837 454.795 248.253C455.43 254.839 456.3 261.06 457.229 266.669C459.404 279.829 461.874 289.695 462.227 293.141L417.268 299.338C400.875 253.474 407.049 226.826 407.049 226.826C410.411 225.438 413.855 224.26 417.362 223.298C418.103 223.098 418.856 222.91 419.632 222.734C425.947 221.491 432.327 220.612 438.742 220.1C439.918 219.994 441.2 219.911 442.399 219.853C448.538 219.547 454.077 219.911 454.077 219.911Z" fill="#263238"/>
<path d="M430.016 199.273C430.346 205.565 431.016 217.372 436.249 220.371C436.249 220.371 432.992 226.568 425.947 227.203C420.62 227.674 420.973 222.417 420.973 222.417C424.054 220.124 423.325 216.231 420.973 211.833L430.016 199.273Z" fill="#E4897B"/>
<path opacity="0.2" d="M426.324 204.402L421.008 211.835C421.568 212.851 422.04 213.913 422.419 215.01C424.889 214.022 427.723 210.306 427.311 207.613C427.183 206.491 426.848 205.403 426.324 204.402Z" fill="black"/>
<path d="M407.084 186.607C406.061 189.877 406.626 196.58 411.177 194.404C415.728 192.229 408.848 180.998 407.084 186.607Z" fill="#263238"/>
<path d="M430.604 191.03C431.11 199.414 431.78 204.295 428.123 209.046C422.56 216.184 411.788 213.526 408.778 205.436C406.073 198.144 405.708 185.655 413.482 181.422C415.205 180.484 417.137 179.999 419.099 180.012C421.061 180.025 422.987 180.535 424.697 181.495C426.408 182.455 427.847 183.833 428.88 185.501C429.913 187.168 430.506 189.07 430.604 191.03Z" fill="#E4897B"/>
<path d="M424.724 186.469V177.061C424.724 177.061 434.697 176.32 434.25 181.424C439.777 184.164 437.166 192.761 429.746 196.971C425.677 193.713 426.147 185.881 426.147 185.881C425.712 186.104 425.218 186.293 424.724 186.469Z" fill="#263238"/>
<path d="M434.661 197.571C434.469 198.596 434.074 199.573 433.498 200.444C432.922 201.314 432.178 202.061 431.31 202.639C428.958 204.18 426.923 202.286 426.841 199.64C426.77 197.288 427.888 193.572 430.592 193.102C431.184 193.01 431.789 193.065 432.354 193.264C432.919 193.463 433.425 193.799 433.829 194.242C434.232 194.685 434.519 195.221 434.664 195.801C434.809 196.382 434.809 196.99 434.661 197.571Z" fill="#E4897B"/>
<path d="M418.221 194.769C418.303 195.451 418.009 196.039 417.562 196.086C417.115 196.133 416.692 195.627 416.61 194.91C416.527 194.193 416.821 193.64 417.257 193.593C417.692 193.546 418.139 194.04 418.221 194.769Z" fill="#263238"/>
<path d="M410.53 195.628C410.612 196.31 410.318 196.898 409.871 196.945C409.424 196.992 409.001 196.487 408.919 195.769C408.836 195.052 409.13 194.499 409.577 194.452C410.024 194.405 410.424 194.946 410.53 195.628Z" fill="#263238"/>
<path d="M413.011 195.688C412.417 197.79 411.534 199.801 410.389 201.662C410.896 201.922 411.453 202.073 412.022 202.103C412.592 202.134 413.161 202.043 413.693 201.838L413.011 195.688Z" fill="#DE5753"/>
<path d="M417.656 204.027C417.366 204.101 417.072 204.156 416.774 204.192C416.721 204.192 416.671 204.17 416.633 204.133C416.596 204.095 416.575 204.045 416.575 203.992C416.575 203.939 416.596 203.888 416.633 203.85C416.671 203.813 416.721 203.792 416.774 203.792C417.619 203.715 418.434 203.441 419.153 202.992C419.872 202.542 420.475 201.93 420.914 201.204C420.924 201.181 420.939 201.159 420.958 201.141C420.976 201.124 420.999 201.11 421.023 201.101C421.047 201.092 421.073 201.089 421.099 201.09C421.124 201.092 421.15 201.099 421.173 201.11C421.197 201.122 421.219 201.138 421.236 201.158C421.254 201.177 421.268 201.201 421.277 201.226C421.286 201.251 421.289 201.278 421.287 201.304C421.286 201.331 421.279 201.357 421.267 201.381C420.882 202.049 420.362 202.629 419.741 203.085C419.119 203.54 418.409 203.861 417.656 204.027Z" fill="#263238"/>
<path d="M420.291 192.031C420.22 192.048 420.145 192.046 420.075 192.025C420.005 192.004 419.942 191.966 419.891 191.914C419.55 191.54 419.127 191.252 418.656 191.07C418.184 190.888 417.677 190.819 417.174 190.867C417.122 190.879 417.069 190.88 417.016 190.87C416.964 190.861 416.914 190.84 416.87 190.81C416.826 190.781 416.788 190.742 416.76 190.697C416.731 190.652 416.712 190.602 416.704 190.549C416.694 190.498 416.694 190.444 416.704 190.393C416.715 190.341 416.735 190.292 416.765 190.248C416.794 190.204 416.832 190.167 416.876 190.138C416.92 190.109 416.97 190.089 417.021 190.079C417.656 190.003 418.3 190.08 418.899 190.303C419.499 190.526 420.036 190.889 420.467 191.361C420.506 191.397 420.536 191.441 420.557 191.489C420.578 191.538 420.589 191.59 420.589 191.643C420.589 191.696 420.578 191.748 420.557 191.797C420.536 191.845 420.506 191.889 420.467 191.925C420.417 191.973 420.357 192.009 420.291 192.031Z" fill="#263238"/>
<path d="M406.896 193.359C406.82 193.388 406.737 193.388 406.661 193.359C406.561 193.325 406.48 193.252 406.433 193.157C406.387 193.063 406.38 192.954 406.414 192.854C406.608 192.248 406.946 191.699 407.398 191.253C407.851 190.806 408.405 190.476 409.013 190.29C409.116 190.263 409.225 190.279 409.317 190.333C409.408 190.387 409.474 190.475 409.501 190.578C409.527 190.681 409.512 190.79 409.458 190.882C409.404 190.973 409.316 191.04 409.213 191.066C408.732 191.214 408.295 191.478 407.94 191.835C407.585 192.192 407.324 192.631 407.178 193.112C407.156 193.174 407.118 193.229 407.069 193.272C407.02 193.315 406.96 193.345 406.896 193.359Z" fill="#263238"/>
<path d="M429.146 189.949C429.146 189.949 423.266 187.797 420.585 184.386C420.585 184.386 415.246 185.786 414.152 187.914C413.653 187.487 413.33 186.89 413.245 186.238C413.161 185.587 413.32 184.927 413.693 184.386C413.693 184.386 409.695 185.233 408.907 187.914C408.257 187.605 407.724 187.095 407.385 186.46C407.046 185.825 406.92 185.098 407.025 184.386C407.025 184.386 405.25 185.057 404.673 187.914C404.673 187.914 400.263 178.718 414.834 176.084C413.732 175.71 412.576 175.515 411.412 175.508C411.412 175.508 421.584 171.403 429.64 175.155C437.695 178.906 436.296 186.174 429.146 189.949Z" fill="#263238"/>
<path d="M465.696 301.057L451.584 302.938C451.584 302.938 445.763 262.261 443.199 249.125V221.089L450.573 219.148L456.288 221.089C457.856 226.729 459.061 232.464 459.898 238.258C460.592 242.657 461.215 247.361 461.768 252.123C462.533 258.615 463.168 265.224 463.709 271.41C464.555 281.394 465.12 290.226 465.426 295.624C465.602 299.011 465.696 301.057 465.696 301.057Z" fill="#407BFF"/>
<path d="M443.211 249.1C443.211 249.1 444.387 229.308 450.584 219.1C450.584 219.1 450.432 216.183 449.197 215.713C447.962 215.243 443.211 218.065 443.211 218.065C443.211 218.065 440.259 216.042 439.612 216.983C438.966 217.924 437.39 224.18 443.211 249.1Z" fill="#407BFF"/>
<path opacity="0.7" d="M443.211 249.1C443.211 249.1 444.387 229.308 450.584 219.1C450.584 219.1 450.432 216.183 449.197 215.713C447.962 215.243 443.211 218.065 443.211 218.065C443.211 218.065 440.259 216.042 439.612 216.983C438.966 217.924 437.39 224.18 443.211 249.1Z" fill="white"/>
<path d="M411.13 306.479L412.741 307.655C412.741 307.655 410.389 294.543 411.353 261.38C411.353 259.78 411.459 258.24 411.518 256.77C412.694 228.71 417.068 223.607 417.398 223.301L413.329 224.688L405.955 227.229C403.733 251.16 411.13 306.479 411.13 306.479Z" fill="#407BFF"/>
<path d="M411.765 251.935C411.765 251.935 407.696 232.696 408.907 226.063C410.118 219.431 414.458 222.382 414.458 222.382C414.458 222.382 418.444 219.16 419.632 222.712C419.632 222.712 414.152 226.569 411.765 251.935Z" fill="#407BFF"/>
<path opacity="0.7" d="M411.765 251.935C411.765 251.935 407.696 232.696 408.907 226.063C410.118 219.431 414.458 222.382 414.458 222.382C414.458 222.382 418.444 219.16 419.632 222.712C419.632 222.712 414.152 226.569 411.765 251.935Z" fill="white"/>
<path opacity="0.2" d="M461.745 252.076C455.724 248.701 454.924 239.893 454.924 239.893C455.288 239.752 457.523 238.987 459.875 238.211C460.569 242.609 461.192 247.313 461.745 252.076Z" fill="black"/>
<path opacity="0.2" d="M432.298 366.394L437.366 338.817L436.39 324.223C436.39 324.223 429.44 349.53 432.298 366.394Z" fill="black"/>
<path opacity="0.2" d="M465.402 295.577C461.615 295.318 458.346 295.071 458.346 295.071L457.629 279.678C458.809 278.939 460.226 278.678 461.592 278.948C462.522 276.489 463.227 273.95 463.697 271.363C464.52 281.348 465.096 290.191 465.402 295.577Z" fill="black"/>
<path d="M466.696 271.352L459.322 283.194L465.155 286.545L472.082 275.879L466.696 271.352Z" fill="#E4897B"/>
<path d="M455.971 220.902C460.933 221.443 482.031 250.396 482.96 259.122C483.889 267.848 470.565 282.913 470.565 282.913L461.674 277.68C461.674 277.68 470.706 263.791 471.176 260.04C471.647 256.288 454.653 241.13 454.653 241.13C453.368 237.638 452.661 233.959 452.56 230.24C452.325 223.866 455.971 220.902 455.971 220.902Z" fill="#407BFF"/>
<path d="M457.617 279.688C457.617 279.688 465.202 281.31 468.26 286.085C468.26 286.085 465.084 296.022 462.815 297.104C460.545 298.186 454.924 298.186 454.924 298.186C454.924 298.186 454.559 287.132 457.617 279.688Z" fill="#407BFF"/>
</svg>
