<svg width="24" height="24" viewBox="0 0 24 24" fill="none" xmlns="http://www.w3.org/2000/svg">
<path d="M14.53 9.47188L9.47004 14.5319C8.82004 13.8819 8.42004 12.9919 8.42004 12.0019C8.42004 10.0219 10.02 8.42188 12 8.42188C12.99 8.42188 13.88 8.82188 14.53 9.47188Z" stroke="currentColor" stroke-width="1.5" stroke-linecap="round" stroke-linejoin="round"/>
<path d="M17.82 5.77047C16.07 4.45047 14.07 3.73047 12 3.73047C8.46997 3.73047 5.17997 5.81047 2.88997 9.41047C1.98997 10.8205 1.98997 13.1905 2.88997 14.6005C3.67997 15.8405 4.59997 16.9105 5.59997 17.7705" stroke="currentColor" stroke-width="1.5" stroke-linecap="round" stroke-linejoin="round"/>
<path d="M8.42004 19.5297C9.56004 20.0097 10.77 20.2697 12 20.2697C15.53 20.2697 18.82 18.1897 21.11 14.5897C22.01 13.1797 22.01 10.8097 21.11 9.39969C20.78 8.87969 20.42 8.38969 20.05 7.92969" stroke="currentColor" stroke-width="1.5" stroke-linecap="round" stroke-linejoin="round"/>
<path d="M15.5099 12.6992C15.2499 14.1092 14.0999 15.2592 12.6899 15.5192" stroke="currentColor" stroke-width="1.5" stroke-linecap="round" stroke-linejoin="round"/>
<path d="M9.47 14.5312L2 22.0013" stroke="currentColor" stroke-width="1.5" stroke-linecap="round" stroke-linejoin="round"/>
<path d="M22 2L14.53 9.47" stroke="currentColor" stroke-width="1.5" stroke-linecap="round" stroke-linejoin="round"/>
</svg>
