<svg width="32" height="32" viewBox="0 0 32 32" fill="none" xmlns="http://www.w3.org/2000/svg">
<g clip-path="url(#clip0_8_4629)">
<path d="M23.9843 12.704C23.9468 11.8539 23.8094 11.2695 23.6124 10.763C23.4092 10.2254 23.0967 9.74412 22.6872 9.34401C22.2871 8.93768 21.8026 8.62193 21.2713 8.42196C20.7619 8.22504 20.1805 8.08752 19.3303 8.05007C18.4738 8.00938 18.2019 8 16.0296 8C13.8573 8 13.5854 8.00938 12.7321 8.04688C11.882 8.08439 11.2975 8.22198 10.7912 8.41877C10.2535 8.62193 9.7722 8.9345 9.37209 9.34401C8.96576 9.74409 8.65017 10.2286 8.45003 10.7599C8.25312 11.2695 8.11562 11.8508 8.07815 12.7009C8.03748 13.5574 8.02808 13.8293 8.02808 16.0016C8.02808 18.1739 8.03748 18.4458 8.07496 19.2991C8.11247 20.1492 8.25006 20.7337 8.447 21.2401C8.65017 21.7777 8.96576 22.259 9.37209 22.6591C9.7722 23.0654 10.2567 23.3812 10.788 23.5812C11.2975 23.7781 11.8788 23.9156 12.7291 23.9531C13.5823 23.9907 13.8543 23.9999 16.0266 23.9999C18.1989 23.9999 18.4708 23.9907 19.3241 23.9531C20.1743 23.9156 20.7587 23.7781 21.265 23.5812C21.7968 23.3756 22.2798 23.0611 22.6829 22.658C23.0861 22.2548 23.4006 21.7719 23.6062 21.2401C23.803 20.7306 23.9406 20.1492 23.9781 19.2991C24.0156 18.4458 24.025 18.1739 24.025 16.0016C24.025 13.8293 24.0218 13.5573 23.9843 12.704ZM22.5435 19.2366C22.5091 20.018 22.3778 20.4399 22.2684 20.7212C21.9996 21.4182 21.4464 21.9715 20.7493 22.2403C20.468 22.3497 20.043 22.481 19.2646 22.5153C18.4207 22.5529 18.1677 22.5622 16.0328 22.5622C13.898 22.5622 13.6417 22.5529 12.8009 22.5153C12.0194 22.481 11.5975 22.3497 11.3162 22.2403C10.9693 22.1121 10.6536 21.909 10.3973 21.6433C10.1316 21.3839 9.92848 21.0713 9.80027 20.7244C9.69087 20.4431 9.55963 20.018 9.52534 19.2398C9.4877 18.3958 9.47845 18.1426 9.47845 16.0078C9.47845 13.873 9.4877 13.6167 9.52534 12.776C9.55963 11.9946 9.69087 11.5726 9.80027 11.2913C9.92848 10.9443 10.1316 10.6286 10.4005 10.3723C10.6598 10.1066 10.9724 9.90343 11.3194 9.77538C11.6007 9.66598 12.0258 9.53471 12.804 9.50029C13.648 9.46279 13.9012 9.45341 16.0359 9.45341C18.1739 9.45341 18.427 9.46279 19.2678 9.50029C20.0492 9.53474 20.4712 9.66595 20.7525 9.77535C21.0993 9.90343 21.4151 10.1066 21.6714 10.3723C21.937 10.6317 22.1402 10.9443 22.2684 11.2913C22.3778 11.5726 22.5091 11.9976 22.5435 12.776C22.581 13.6199 22.5904 13.873 22.5904 16.0078C22.5904 18.1426 22.581 18.3927 22.5435 19.2366Z" fill="currentColor"/>
<path d="M16.0297 11.8916C13.7605 11.8916 11.9195 13.7325 11.9195 16.0017C11.9195 18.271 13.7605 20.1119 16.0297 20.1119C18.2989 20.1119 20.1399 18.271 20.1399 16.0017C20.1399 13.7325 18.2989 11.8916 16.0297 11.8916ZM16.0297 18.6679C14.5576 18.6679 13.3635 17.474 13.3635 16.0017C13.3635 14.5295 14.5576 13.3356 16.0296 13.3356C17.5019 13.3356 18.6958 14.5295 18.6958 16.0017C18.6958 17.474 17.5018 18.6679 16.0297 18.6679ZM21.262 11.729C21.262 12.2589 20.8323 12.6886 20.3023 12.6886C19.7724 12.6886 19.3428 12.2589 19.3428 11.729C19.3428 11.1991 19.7724 10.7695 20.3024 10.7695C20.8323 10.7695 21.262 11.199 21.262 11.729Z" fill="currentColor"/>
</g>
<circle cx="16" cy="16" r="15.5" stroke="currentColor"/>
<defs>
<clipPath id="clip0_8_4629">
<rect width="16" height="16" fill="currentColor" transform="translate(8 8)"/>
</clipPath>
</defs>
</svg>
