<svg width="48" height="48" viewBox="0 0 48 48" fill="none" xmlns="http://www.w3.org/2000/svg">
<g clip-path="url(#clip0_8_4556)">
<path d="M8.8 23.9978C8.7992 32.093 15.1384 38.7706 23.2224 39.1898C23.6544 39.2042 23.9984 39.5578 24 39.9898V46.3978C23.9994 46.5065 23.9768 46.6139 23.9335 46.7136C23.8903 46.8134 23.8273 46.9033 23.7483 46.9781C23.6694 47.0528 23.5762 47.1108 23.4742 47.1486C23.3723 47.1863 23.2638 47.203 23.1552 47.1978C22.7104 47.1791 22.2664 47.145 21.824 47.0954C21.516 47.0567 21.229 46.9186 21.0067 46.7021C20.7843 46.4855 20.6387 46.2022 20.592 45.8954L20.088 42.813C17.7308 42.3261 15.4881 41.3943 13.48 40.0674L10.936 41.8922C10.685 42.0768 10.3809 42.1751 10.0693 42.1722C9.75776 42.1693 9.45553 42.0654 9.208 41.8762C8.65087 41.4116 8.11435 40.9229 7.6 40.4114C7.08454 39.8991 6.59589 39.3605 6.136 38.7978C5.94636 38.5501 5.84227 38.2475 5.83939 37.9356C5.8365 37.6237 5.93498 37.3193 6.12 37.0682L7.944 34.5258C6.61789 32.5156 5.68664 30.2714 5.2 27.913L2.12 27.4082C1.8088 27.3563 1.5231 27.204 1.30646 26.9747C1.08981 26.7453 0.954095 26.4514 0.920003 26.1378C0.762506 24.7021 0.762506 23.2534 0.920003 21.8178C1 21.185 1.4896 20.6818 2.12 20.585L5.2 20.081C5.68664 17.7225 6.61789 15.4783 7.944 13.4682L6.12 10.9242C5.93574 10.6733 5.8377 10.3695 5.84059 10.0583C5.84347 9.74706 5.94712 9.44514 6.136 9.19775C6.592 8.63215 7.08 8.09375 7.6 7.58656C8.11047 7.07072 8.64718 6.58154 9.208 6.12095C9.45553 5.93169 9.75776 5.82782 10.0693 5.82494C10.3809 5.82205 10.685 5.92031 10.936 6.10495L13.48 7.93055C15.4883 6.60374 17.7309 5.67166 20.088 5.18415L20.592 2.10255C20.6397 1.79512 20.7853 1.5113 21.0073 1.29335C21.2293 1.07539 21.5157 0.934958 21.824 0.892954C22.2676 0.848776 22.7123 0.817031 23.1576 0.797754C23.266 0.792683 23.3743 0.809589 23.476 0.847455C23.5777 0.885321 23.6707 0.943366 23.7494 1.0181C23.8281 1.09283 23.8909 1.18271 23.9339 1.28232C23.977 1.38194 23.9995 1.48923 24 1.59775V8.00735C23.9976 8.43935 23.6544 8.79295 23.2224 8.80735C15.1392 9.22655 8.8 15.9034 8.8 23.9978Z" fill="#0061FF"/>
<path d="M23.2224 8.80655C23.6544 8.79215 23.9984 8.43855 24 8.00655V1.59775C23.9995 1.48923 23.977 1.38194 23.9339 1.28232C23.8909 1.18271 23.8281 1.09283 23.7494 1.0181C23.6707 0.943366 23.5777 0.885321 23.476 0.847455C23.3743 0.809589 23.266 0.792683 23.1576 0.797754C22.708 0.816154 22.2632 0.848154 21.824 0.892154C21.6619 0.912704 21.5048 0.96201 21.36 1.03775C21.512 1.18495 21.5984 1.38655 21.6 1.59775V8.00735C21.5976 8.43935 21.2544 8.79295 20.8224 8.80735C12.7376 9.22655 6.39838 15.9034 6.39838 23.9994C6.39838 32.0954 12.7376 38.7714 20.8224 39.1906C21.2544 39.205 21.5984 39.5586 21.6 39.9906V46.3978C21.599 46.5023 21.5772 46.6057 21.536 46.7018C21.4948 46.7979 21.435 46.8849 21.36 46.9578C21.504 47.0306 21.66 47.0778 21.82 47.0962C22.2584 47.1458 22.7 47.1762 23.1512 47.1986C23.2601 47.2044 23.3692 47.1881 23.4716 47.1505C23.5741 47.113 23.6678 47.055 23.7472 46.9801C23.8266 46.9052 23.8899 46.815 23.9334 46.7149C23.9768 46.6148 23.9995 46.5069 24 46.3978V39.9866C23.9989 39.7786 23.9173 39.5791 23.7723 39.43C23.6273 39.2808 23.4302 39.1936 23.2224 39.1866C15.1376 38.7674 8.79838 32.0906 8.79838 23.9946C8.79838 15.8986 15.1376 9.22256 23.2224 8.80336V8.80655Z" fill="#0061FF"/>
<path d="M24 35.2353C24.0009 35.3349 23.9816 35.4336 23.9432 35.5255C23.9048 35.6174 23.8481 35.7005 23.7766 35.7698C23.705 35.8391 23.6202 35.8931 23.5271 35.9286C23.434 35.964 23.3347 35.9802 23.2352 35.9761C16.9152 35.5761 11.9936 30.3329 11.9936 24.0001C11.9936 17.6673 16.9152 12.4241 23.2352 12.0241C23.3347 12.0199 23.434 12.0361 23.5271 12.0716C23.6202 12.107 23.705 12.161 23.7766 12.2303C23.8481 12.2996 23.9048 12.3827 23.9432 12.4746C23.9816 12.5665 24.0009 12.6653 24 12.7649V35.2353Z" fill="#0061FF"/>
<path d="M23.2352 12.0241C22.6236 12.0669 22.0163 12.1565 21.4184 12.2921C21.5322 12.4237 21.5965 12.5909 21.6 12.7649V35.2353C21.5965 35.4092 21.5322 35.5765 21.4184 35.7081C22.016 35.8441 22.624 35.9329 23.2352 35.9761C23.3347 35.9802 23.434 35.964 23.5271 35.9286C23.6202 35.8931 23.705 35.8391 23.7766 35.7698C23.8481 35.7005 23.9048 35.6174 23.9432 35.5255C23.9816 35.4336 24.0009 35.3349 24 35.2353V12.7649C24.0009 12.6653 23.9816 12.5665 23.9432 12.4746C23.9048 12.3827 23.8481 12.2996 23.7766 12.2303C23.705 12.161 23.6202 12.107 23.5271 12.0716C23.434 12.0361 23.3347 12.0199 23.2352 12.0241Z" fill="#0061FF"/>
<path d="M31.2 5.59844C32.0836 5.59844 32.8 4.88209 32.8 3.99844C32.8 3.11478 32.0836 2.39844 31.2 2.39844C30.3163 2.39844 29.6 3.11478 29.6 3.99844C29.6 4.88209 30.3163 5.59844 31.2 5.59844Z" fill="#0061FF"/>
<path d="M31.2 45.5984C32.0836 45.5984 32.8 44.8821 32.8 43.9984C32.8 43.1148 32.0836 42.3984 31.2 42.3984C30.3163 42.3984 29.6 43.1148 29.6 43.9984C29.6 44.8821 30.3163 45.5984 31.2 45.5984Z" fill="#0061FF"/>
<path d="M39.2 37.5984C40.0836 37.5984 40.8 36.8821 40.8 35.9984C40.8 35.1148 40.0836 34.3984 39.2 34.3984C38.3163 34.3984 37.6 35.1148 37.6 35.9984C37.6 36.8821 38.3163 37.5984 39.2 37.5984Z" fill="#0061FF"/>
<path d="M45.6 25.5984C46.4837 25.5984 47.2 24.8821 47.2 23.9984C47.2 23.1148 46.4837 22.3984 45.6 22.3984C44.7163 22.3984 44 23.1148 44 23.9984C44 24.8821 44.7163 25.5984 45.6 25.5984Z" fill="#0061FF"/>
<path d="M39.2 13.5984C40.0836 13.5984 40.8 12.8821 40.8 11.9984C40.8 11.1148 40.0836 10.3984 39.2 10.3984C38.3163 10.3984 37.6 11.1148 37.6 11.9984C37.6 12.8821 38.3163 13.5984 39.2 13.5984Z" fill="#0061FF"/>
<path d="M1.9888 19.799C1.5111 19.8764 1.07132 20.1065 0.735308 20.4548C0.399292 20.8031 0.185103 21.2508 0.1248 21.731C-0.0399796 23.2247 -0.0415891 24.732 0.12 26.2262C0.174796 26.7136 0.387064 27.1698 0.724608 27.5257C1.06215 27.8816 1.50655 28.1177 1.9904 28.1982L4.536 28.615C5.02471 30.6966 5.84968 32.6845 6.9784 34.5006L5.48 36.5934C5.18947 36.9873 5.03566 37.4654 5.04202 37.9549C5.04837 38.4443 5.21454 38.9183 5.5152 39.3046C5.992 39.8886 6.4992 40.4462 7.0352 40.9758C7.57452 41.5118 8.1372 42.0237 8.7216 42.5102C9.5088 43.1158 10.6016 43.1286 11.4032 42.5414L13.5064 41.0326C15.3206 42.1611 17.3067 42.9863 19.3864 43.4758L19.804 46.0254C19.8813 46.5032 20.1113 46.9432 20.4596 47.2793C20.8079 47.6155 21.2557 47.8298 21.736 47.8902C22.192 47.9414 22.6552 47.9774 23.1216 47.9966H23.1896C23.6064 47.9966 24.0072 47.8366 24.3096 47.5486C24.624 47.2486 24.8008 46.8326 24.8 46.3982V39.987C24.7977 39.5745 24.6369 39.1787 24.3508 38.8816C24.0647 38.5845 23.6753 38.4088 23.2632 38.391C15.6064 37.991 9.6024 31.6662 9.6024 23.999C9.6024 16.3318 15.6064 10.0062 23.264 9.60617C23.6767 9.58807 24.0666 9.41177 24.3527 9.11385C24.6389 8.81592 24.7993 8.41925 24.8008 8.00617V1.59817C24.8014 1.38298 24.7582 1.16992 24.6737 0.971992C24.5893 0.774067 24.4654 0.595424 24.3096 0.446965C24.154 0.294317 23.9685 0.175612 23.7647 0.0983606C23.5609 0.021109 23.3433 -0.0130087 23.1256 -0.00183457C22.66 0.0165654 22.1984 0.0501654 21.7248 0.0981654C21.2449 0.160029 20.7981 0.376233 20.4518 0.714182C20.1055 1.05213 19.8784 1.49351 19.8048 1.97177L19.388 4.51897C17.3082 5.00878 15.3222 5.83427 13.508 6.96297L11.4048 5.45737C11.0112 5.16951 10.5343 5.01798 10.0468 5.02577C9.55916 5.03357 9.08743 5.20027 8.7032 5.50057C8.12317 5.97534 7.56803 6.47975 7.04 7.01177C6.496 7.54377 5.984 8.10777 5.5056 8.69977C5.20847 9.08361 5.04407 9.55359 5.03714 10.039C5.03022 10.5243 5.18114 10.9988 5.4672 11.391L6.9752 13.4966C5.84747 15.3124 5.02358 17.3002 4.536 19.3814L1.9888 19.799ZM5.9832 20.2454C6.44833 17.9858 7.34057 15.8359 8.612 13.911C8.70099 13.7758 8.74687 13.6167 8.74359 13.4549C8.7403 13.2931 8.688 13.136 8.5936 13.0046L6.7688 10.4566C6.68658 10.3481 6.64109 10.2162 6.63893 10.0801C6.63678 9.94403 6.67806 9.81079 6.7568 9.69977C7.19531 9.1563 7.66574 8.63939 8.1656 8.15177C8.65113 7.66128 9.16111 7.19562 9.6936 6.75657C9.80509 6.67157 9.94141 6.62554 10.0816 6.62554C10.2218 6.62554 10.3581 6.67157 10.4696 6.75657L13.0136 8.58216C13.1452 8.67633 13.3024 8.72835 13.4642 8.73135C13.626 8.73435 13.785 8.68819 13.92 8.59897C15.8433 7.327 17.992 6.43445 20.2504 5.96937C20.409 5.93667 20.554 5.85661 20.6661 5.73976C20.7782 5.62292 20.8523 5.47479 20.8784 5.31497L21.3816 2.23417C21.3992 2.09956 21.4595 1.97415 21.5537 1.87638C21.6479 1.7786 21.771 1.71361 21.9048 1.69097C22.3354 1.64619 22.7674 1.61524 23.2 1.59817L23.1824 8.00696C14.6656 8.44217 7.984 15.4774 7.9888 24.0054C7.9936 32.5334 14.6824 39.5614 23.2 39.987L23.1888 46.3982C22.7627 46.3805 22.3374 46.3476 21.9136 46.2998C21.7792 46.2801 21.6547 46.2174 21.559 46.1211C21.4632 46.0247 21.4012 45.8999 21.3824 45.7654L20.8784 42.683C20.8523 42.5231 20.7782 42.375 20.6661 42.2582C20.554 42.1413 20.409 42.0613 20.2504 42.0286C17.9919 41.5631 15.8433 40.6703 13.92 39.3982C13.7849 39.3091 13.6259 39.263 13.4641 39.2662C13.3022 39.2693 13.1452 39.3215 13.0136 39.4158L10.4672 41.243C10.3614 41.3252 10.2321 41.3716 10.0981 41.3752C9.9641 41.3788 9.83247 41.3394 9.7224 41.263C9.18361 40.8124 8.66421 40.3392 8.1656 39.8446C7.67504 39.3599 7.20963 38.8504 6.7712 38.3182C6.6872 38.2059 6.6418 38.0695 6.6418 37.9294C6.6418 37.7892 6.6872 37.6528 6.7712 37.5406L8.5944 34.995C8.68868 34.8634 8.74084 34.7063 8.74398 34.5445C8.74713 34.3827 8.70111 34.2237 8.612 34.0886C7.34043 32.164 6.44818 30.0143 5.9832 27.755C5.95056 27.5965 5.87061 27.4516 5.75392 27.3395C5.63723 27.2274 5.48928 27.1533 5.3296 27.127L2.2496 26.6222C2.11009 26.5991 1.98195 26.531 1.88474 26.4283C1.78753 26.3256 1.72659 26.1939 1.7112 26.0534C1.56134 24.6773 1.56295 23.289 1.716 21.9134C1.73539 21.7788 1.79787 21.6542 1.89407 21.5581C1.99027 21.4621 2.11502 21.3998 2.2496 21.3806L5.3288 20.8766C5.48905 20.8502 5.63749 20.7757 5.75439 20.663C5.87128 20.5502 5.95109 20.4046 5.9832 20.2454Z" fill="#0061FF"/>
<path d="M45.6 21.5998C45.1054 21.6018 44.6235 21.7567 44.2202 22.0431C43.817 22.3295 43.5121 22.7335 43.3472 23.1998H24.8V20.7998H37.6C38.2365 20.7998 38.847 20.5469 39.2971 20.0968C39.7472 19.6468 40 19.0363 40 18.3998V14.2526C40.5338 14.0639 40.9837 13.6925 41.2701 13.2042C41.5566 12.7159 41.6612 12.142 41.5654 11.584C41.4697 11.026 41.1798 10.5198 40.7469 10.1549C40.3141 9.78999 39.7662 9.58984 39.2 9.58984C38.6339 9.58984 38.0859 9.78999 37.6531 10.1549C37.2202 10.5198 36.9303 11.026 36.8346 11.584C36.7388 12.142 36.8434 12.7159 37.1299 13.2042C37.4164 13.6925 37.8662 14.0639 38.4 14.2526V18.3998C38.4 18.612 38.3157 18.8154 38.1657 18.9655C38.0157 19.1155 37.8122 19.1998 37.6 19.1998H24.8V16.7998H33.6C33.8122 16.7998 34.0157 16.7155 34.1657 16.5655C34.3157 16.4154 34.4 16.212 34.4 15.9998C34.4 15.7876 34.3157 15.5841 34.1657 15.4341C34.0157 15.2841 33.8122 15.1998 33.6 15.1998H24.8V13.5998H29.6C30.2365 13.5998 30.847 13.3469 31.2971 12.8968C31.7471 12.4468 32 11.8363 32 11.1998V6.25259C32.5338 6.06387 32.9837 5.69253 33.2701 5.2042C33.5566 4.71587 33.6612 4.142 33.5654 3.584C33.4697 3.026 33.1798 2.51981 32.7469 2.1549C32.3141 1.78999 31.7662 1.58984 31.2 1.58984C30.6339 1.58984 30.0859 1.78999 29.6531 2.1549C29.2202 2.51981 28.9303 3.026 28.8346 3.584C28.7388 4.142 28.8434 4.71587 29.1299 5.2042C29.4164 5.69253 29.8662 6.06387 30.4 6.25259V11.1998C30.4 11.412 30.3157 11.6154 30.1657 11.7655C30.0157 11.9155 29.8122 11.9998 29.6 11.9998H24.5888C24.4541 11.7493 24.2499 11.5431 24.0009 11.4057C23.7519 11.2684 23.4685 11.2057 23.1848 11.2254C16.4432 11.6526 11.1936 17.2446 11.1936 23.9998C11.1936 30.755 16.4432 36.347 23.1848 36.7742H23.2784C23.5466 36.7764 23.8103 36.7055 24.0412 36.569C24.2721 36.4326 24.4614 36.2358 24.5888 35.9998H29.6C29.8122 35.9998 30.0157 36.0841 30.1657 36.2341C30.3157 36.3841 30.4 36.5876 30.4 36.7998V41.747C29.8662 41.9357 29.4164 42.307 29.1299 42.7954C28.8434 43.2837 28.7388 43.8576 28.8346 44.4156C28.9303 44.9736 29.2202 45.4798 29.6531 45.8447C30.0859 46.2096 30.6339 46.4097 31.2 46.4097C31.7662 46.4097 32.3141 46.2096 32.7469 45.8447C33.1798 45.4798 33.4697 44.9736 33.5654 44.4156C33.6612 43.8576 33.5566 43.2837 33.2701 42.7954C32.9837 42.307 32.5338 41.9357 32 41.747V36.7998C32 36.1633 31.7471 35.5528 31.2971 35.1027C30.847 34.6526 30.2365 34.3998 29.6 34.3998H24.8V32.7998H33.6C33.8122 32.7998 34.0157 32.7155 34.1657 32.5655C34.3157 32.4154 34.4 32.212 34.4 31.9998C34.4 31.7876 34.3157 31.5841 34.1657 31.4341C34.0157 31.2841 33.8122 31.1998 33.6 31.1998H24.8V28.7998H37.6C37.8122 28.7998 38.0157 28.8841 38.1657 29.0341C38.3157 29.1841 38.4 29.3876 38.4 29.5998V33.747C37.8662 33.9357 37.4164 34.307 37.1299 34.7954C36.8434 35.2837 36.7388 35.8576 36.8346 36.4156C36.9303 36.9736 37.2202 37.4798 37.6531 37.8447C38.0859 38.2096 38.6339 38.4097 39.2 38.4097C39.7662 38.4097 40.3141 38.2096 40.7469 37.8447C41.1798 37.4798 41.4697 36.9736 41.5654 36.4156C41.6612 35.8576 41.5566 35.2837 41.2701 34.7954C40.9837 34.307 40.5338 33.9357 40 33.747V29.5998C40 28.9633 39.7472 28.3528 39.2971 27.9027C38.847 27.4526 38.2365 27.1998 37.6 27.1998H24.8V24.7998H43.3472C43.4946 25.2135 43.7529 25.5788 44.0938 25.8557C44.4347 26.1326 44.8452 26.3104 45.2804 26.3698C45.7155 26.4292 46.1587 26.3678 46.5613 26.1923C46.964 26.0169 47.3106 25.7342 47.5635 25.375C47.8163 25.0159 47.9656 24.5942 47.9949 24.156C48.0243 23.7178 47.9326 23.2799 47.73 22.8902C47.5273 22.5006 47.2215 22.1741 46.8458 21.9465C46.4702 21.719 46.0392 21.599 45.6 21.5998ZM39.2 11.1998C39.4122 11.1998 39.6157 11.2841 39.7657 11.4341C39.9157 11.5841 40 11.7876 40 11.9998C40 12.212 39.9157 12.4154 39.7657 12.5655C39.6157 12.7155 39.4122 12.7998 39.2 12.7998C38.9878 12.7998 38.7844 12.7155 38.6343 12.5655C38.4843 12.4154 38.4 12.212 38.4 11.9998C38.4 11.7876 38.4843 11.5841 38.6343 11.4341C38.7844 11.2841 38.9878 11.1998 39.2 11.1998ZM31.2 3.19979C31.4122 3.19979 31.6157 3.28407 31.7657 3.4341C31.9157 3.58413 32 3.78761 32 3.99979C32 4.21196 31.9157 4.41544 31.7657 4.56547C31.6157 4.7155 31.4122 4.79979 31.2 4.79979C30.9878 4.79979 30.7843 4.7155 30.6343 4.56547C30.4843 4.41544 30.4 4.21196 30.4 3.99979C30.4 3.78761 30.4843 3.58413 30.6343 3.4341C30.7843 3.28407 30.9878 3.19979 31.2 3.19979ZM31.2 44.7998C30.9878 44.7998 30.7843 44.7155 30.6343 44.5655C30.4843 44.4154 30.4 44.212 30.4 43.9998C30.4 43.7876 30.4843 43.5841 30.6343 43.4341C30.7843 43.2841 30.9878 43.1998 31.2 43.1998C31.4122 43.1998 31.6157 43.2841 31.7657 43.4341C31.9157 43.5841 32 43.7876 32 43.9998C32 44.212 31.9157 44.4154 31.7657 44.5655C31.6157 44.7155 31.4122 44.7998 31.2 44.7998ZM39.2 36.7998C38.9878 36.7998 38.7844 36.7155 38.6343 36.5655C38.4843 36.4154 38.4 36.212 38.4 35.9998C38.4 35.7876 38.4843 35.5841 38.6343 35.4341C38.7844 35.2841 38.9878 35.1998 39.2 35.1998C39.4122 35.1998 39.6157 35.2841 39.7657 35.4341C39.9157 35.5841 40 35.7876 40 35.9998C40 36.212 39.9157 36.4154 39.7657 36.5655C39.6157 36.7155 39.4122 36.7998 39.2 36.7998ZM12.8 23.9998C12.8064 18.1278 17.3432 13.255 23.2 12.8286V35.171C17.3432 34.7446 12.8064 29.8726 12.8 23.9998ZM45.6 24.7998C45.3878 24.7998 45.1844 24.7155 45.0343 24.5655C44.8843 24.4154 44.8 24.212 44.8 23.9998C44.8 23.7876 44.8843 23.5841 45.0343 23.4341C45.1844 23.2841 45.3878 23.1998 45.6 23.1998C45.8122 23.1998 46.0157 23.2841 46.1657 23.4341C46.3157 23.5841 46.4 23.7876 46.4 23.9998C46.4 24.212 46.3157 24.4154 46.1657 24.5655C46.0157 24.7155 45.8122 24.7998 45.6 24.7998Z" fill="#0061FF"/>
</g>
<defs>
<clipPath id="clip0_8_4556">
<rect width="48" height="48" fill="white"/>
</clipPath>
</defs>
</svg>
