<svg width="43" height="54" viewBox="0 0 43 54" fill="none" xmlns="http://www.w3.org/2000/svg">
<path d="M40.2 24.2004C39.623 24.2028 39.0608 24.3834 38.5903 24.7175C38.1198 25.0517 37.7641 25.523 37.5717 26.0671H15.9333V23.2671H30.8667C31.6093 23.2671 32.3215 22.9721 32.8466 22.447C33.3717 21.9219 33.6667 21.2097 33.6667 20.4671V15.6287C34.2894 15.4085 34.8143 14.9753 35.1485 14.4056C35.4827 13.8358 35.6047 13.1663 35.493 12.5153C35.3813 11.8643 35.0431 11.2738 34.5381 10.848C34.0331 10.4223 33.3939 10.1888 32.7333 10.1888C32.0728 10.1888 31.4336 10.4223 30.9286 10.848C30.4236 11.2738 30.0854 11.8643 29.9737 12.5153C29.862 13.1663 29.984 13.8358 30.3182 14.4056C30.6524 14.9753 31.1773 15.4085 31.8 15.6287V20.4671C31.8 20.7146 31.7017 20.952 31.5266 21.127C31.3516 21.3021 31.1142 21.4004 30.8667 21.4004H15.9333V18.6004H26.2C26.4475 18.6004 26.6849 18.5021 26.86 18.327C27.035 18.152 27.1333 17.9146 27.1333 17.6671C27.1333 17.4195 27.035 17.1821 26.86 17.0071C26.6849 16.8321 26.4475 16.7337 26.2 16.7337H15.9333V14.8671H21.5333C22.2759 14.8671 22.9881 14.5721 23.5132 14.047C24.0383 13.5219 24.3333 12.8097 24.3333 12.0671V6.29533C24.9561 6.07516 25.4809 5.64194 25.8151 5.07222C26.1493 4.5025 26.2714 3.83298 26.1597 3.18198C26.048 2.53099 25.7098 1.94044 25.2048 1.5147C24.6998 1.08897 24.0605 0.855469 23.4 0.855469C22.7395 0.855469 22.1003 1.08897 21.5953 1.5147C21.0903 1.94044 20.752 2.53099 20.6403 3.18198C20.5286 3.83298 20.6507 4.5025 20.9849 5.07222C21.3191 5.64194 21.8439 6.07516 22.4667 6.29533V12.0671C22.4667 12.3146 22.3683 12.552 22.1933 12.727C22.0183 12.9021 21.7809 13.0004 21.5333 13.0004H15.6869C15.5297 12.7082 15.2916 12.4676 15.0011 12.3073C14.7105 12.1471 14.3799 12.074 14.0489 12.0969C6.18374 12.5953 0.0592041 19.1193 0.0592041 27.0004C0.0592041 34.8815 6.18374 41.4055 14.0489 41.9039H14.1581C14.471 41.9065 14.7787 41.8237 15.0481 41.6645C15.3174 41.5053 15.5383 41.2757 15.6869 41.0004H21.5333C21.7809 41.0004 22.0183 41.0987 22.1933 41.2738C22.3683 41.4488 22.4667 41.6862 22.4667 41.9337V47.7055C21.8439 47.9256 21.3191 48.3589 20.9849 48.9286C20.6507 49.4983 20.5286 50.1678 20.6403 50.8188C20.752 51.4698 21.0903 52.0604 21.5953 52.4861C22.1003 52.9118 22.7395 53.1453 23.4 53.1453C24.0605 53.1453 24.6998 52.9118 25.2048 52.4861C25.7098 52.0604 26.048 51.4698 26.1597 50.8188C26.2714 50.1678 26.1493 49.4983 25.8151 48.9286C25.4809 48.3589 24.9561 47.9256 24.3333 47.7055V41.9337C24.3333 41.1911 24.0383 40.4789 23.5132 39.9538C22.9881 39.4287 22.2759 39.1337 21.5333 39.1337H15.9333V37.2671H26.2C26.4475 37.2671 26.6849 37.1687 26.86 36.9937C27.035 36.8187 27.1333 36.5813 27.1333 36.3337C27.1333 36.0862 27.035 35.8488 26.86 35.6738C26.6849 35.4987 26.4475 35.4004 26.2 35.4004H15.9333V32.6004H30.8667C31.1142 32.6004 31.3516 32.6987 31.5266 32.8738C31.7017 33.0488 31.8 33.2862 31.8 33.5337V38.3721C31.1773 38.5923 30.6524 39.0255 30.3182 39.5952C29.984 40.165 29.862 40.8345 29.9737 41.4855C30.0854 42.1365 30.4236 42.727 30.9286 43.1528C31.4336 43.5785 32.0728 43.812 32.7333 43.812C33.3939 43.812 34.0331 43.5785 34.5381 43.1528C35.0431 42.727 35.3813 42.1365 35.493 41.4855C35.6047 40.8345 35.4827 40.165 35.1485 39.5952C34.8143 39.0255 34.2894 38.5923 33.6667 38.3721V33.5337C33.6667 32.7911 33.3717 32.0789 32.8466 31.5538C32.3215 31.0287 31.6093 30.7337 30.8667 30.7337H15.9333V27.9337H37.5717C37.7437 28.4164 38.045 28.8426 38.4428 29.1656C38.8405 29.4886 39.3194 29.6961 39.8271 29.7654C40.3348 29.8347 40.8518 29.7631 41.3215 29.5584C41.7913 29.3537 42.1958 29.0239 42.4907 28.6049C42.7857 28.1859 42.9598 27.6939 42.9941 27.1826C43.0283 26.6714 42.9214 26.1605 42.685 25.7059C42.4485 25.2513 42.0917 24.8705 41.6535 24.6049C41.2152 24.3394 40.7124 24.1995 40.2 24.2004ZM32.7333 12.0671C32.9809 12.0671 33.2183 12.1654 33.3933 12.3404C33.5683 12.5155 33.6667 12.7529 33.6667 13.0004C33.6667 13.2479 33.5683 13.4853 33.3933 13.6604C33.2183 13.8354 32.9809 13.9337 32.7333 13.9337C32.4858 13.9337 32.2484 13.8354 32.0734 13.6604C31.8983 13.4853 31.8 13.2479 31.8 13.0004C31.8 12.7529 31.8983 12.5155 32.0734 12.3404C32.2484 12.1654 32.4858 12.0671 32.7333 12.0671ZM23.4 2.73373C23.6475 2.73373 23.8849 2.83207 24.06 3.0071C24.235 3.18214 24.3333 3.41953 24.3333 3.66707C24.3333 3.9146 24.235 4.152 24.06 4.32703C23.8849 4.50207 23.6475 4.6004 23.4 4.6004C23.1525 4.6004 22.9151 4.50207 22.74 4.32703C22.565 4.152 22.4667 3.9146 22.4667 3.66707C22.4667 3.41953 22.565 3.18214 22.74 3.0071C22.9151 2.83207 23.1525 2.73373 23.4 2.73373ZM23.4 51.2671C23.1525 51.2671 22.9151 51.1687 22.74 50.9937C22.565 50.8187 22.4667 50.5813 22.4667 50.3337C22.4667 50.0862 22.565 49.8488 22.74 49.6738C22.9151 49.4987 23.1525 49.4004 23.4 49.4004C23.6475 49.4004 23.8849 49.4987 24.06 49.6738C24.235 49.8488 24.3333 50.0862 24.3333 50.3337C24.3333 50.5813 24.235 50.8187 24.06 50.9937C23.8849 51.1687 23.6475 51.2671 23.4 51.2671ZM32.7333 41.9337C32.4858 41.9337 32.2484 41.8354 32.0734 41.6604C31.8983 41.4853 31.8 41.2479 31.8 41.0004C31.8 40.7529 31.8983 40.5155 32.0734 40.3404C32.2484 40.1654 32.4858 40.0671 32.7333 40.0671C32.9809 40.0671 33.2183 40.1654 33.3933 40.3404C33.5683 40.5155 33.6667 40.7529 33.6667 41.0004C33.6667 41.2479 33.5683 41.4853 33.3933 41.6604C33.2183 41.8354 32.9809 41.9337 32.7333 41.9337ZM1.93334 27.0004C1.9408 20.1497 7.23374 14.4648 14.0667 13.9673V40.0335C7.23374 39.536 1.9408 33.852 1.93334 27.0004ZM40.2 27.9337C39.9525 27.9337 39.7151 27.8354 39.54 27.6604C39.365 27.4853 39.2667 27.2479 39.2667 27.0004C39.2667 26.7529 39.365 26.5155 39.54 26.3404C39.7151 26.1654 39.9525 26.0671 40.2 26.0671C40.4475 26.0671 40.6849 26.1654 40.86 26.3404C41.035 26.5155 41.1333 26.7529 41.1333 27.0004C41.1333 27.2479 41.035 27.4853 40.86 27.6604C40.6849 27.8354 40.4475 27.9337 40.2 27.9337Z" fill="white"/>
</svg>
